<svg width="1920" height="75" viewBox="0 0 1920 75" fill="none" xmlns="http://www.w3.org/2000/svg">
<g filter="url(#filter0_dd_52_7515)">
<g clip-path="url(#clip0_52_7515)">
<mask id="path-1-inside-1_52_7515" fill="white">
<path d="M0 0H1920V40H0V0Z"/>
</mask>
<path d="M0 0H1920V40H0V0Z" fill="#F5F9FF"/>
<g filter="url(#filter1_f_52_7515)">
<ellipse cx="1334.82" cy="89.3196" rx="88.1572" ry="74.21" fill="#167BFF"/>
</g>
<g filter="url(#filter2_f_52_7515)">
<circle cx="584.884" cy="-128.718" r="88.1572" fill="#167BFF"/>
</g>
<g filter="url(#filter3_f_52_7515)">
<circle cx="755.764" cy="36.1242" r="220.393" fill="#167BFF" fill-opacity="0.2"/>
</g>
<g filter="url(#filter4_f_52_7515)">
<path d="M2179 -469H-259C-6.30904 -267.438 457.894 270.148 293.177 808H1753.17C1524.81 238.323 1941.91 -280.699 2179 -469Z" fill="url(#paint0_linear_52_7515)"/>
<path d="M2179 -469H-259C-6.30904 -267.438 457.894 270.148 293.177 808H1753.17C1524.81 238.323 1941.91 -280.699 2179 -469Z" stroke="black" stroke-width="1.20763"/>
</g>
<g opacity="0.8">
<g filter="url(#filter5_i_52_7515)">
<path d="M601.187 -150.455H744.896L600.583 190.098H456.875L601.187 -150.455Z" fill="#F5F9FF" fill-opacity="0.62"/>
</g>
<path d="M743.984 -149.852L600.184 189.494H457.786L601.587 -149.852H743.984Z" stroke="#F5F9FF" stroke-opacity="0.22" stroke-width="1.20763"/>
</g>
<g opacity="0.6">
<g filter="url(#filter6_i_52_7515)">
<path d="M744.896 -150.455H888.604L744.292 190.098H600.583L744.896 -150.455Z" fill="#F5F9FF" fill-opacity="0.62"/>
</g>
<path d="M887.693 -149.852L743.892 189.494H601.495L745.295 -149.852H887.693Z" stroke="#F5F9FF" stroke-opacity="0.22" stroke-width="1.20763"/>
</g>
<g opacity="0.42">
<g filter="url(#filter7_i_52_7515)">
<path d="M888.604 -150.455H1032.31L888 190.098H744.292L888.604 -150.455Z" fill="#F5F9FF" fill-opacity="0.5"/>
</g>
<path d="M1031.4 -149.852L887.6 189.494H745.203L889.004 -149.852H1031.4Z" stroke="#F5F9FF" stroke-opacity="0.22" stroke-width="1.20763"/>
</g>
<g opacity="0.8">
<g filter="url(#filter8_i_52_7515)">
<path d="M1032.31 -150.455H1176.02L1031.71 190.098H888L1032.31 -150.455Z" fill="#F5F9FF" fill-opacity="0.62"/>
</g>
<path d="M1175.11 -149.852L1031.31 189.494H888.911L1032.71 -149.852H1175.11Z" stroke="#F5F9FF" stroke-opacity="0.22" stroke-width="1.20763"/>
</g>
<g opacity="0.6">
<g filter="url(#filter9_i_52_7515)">
<path d="M1176.02 -150.455H1319.73L1175.42 190.098H1031.71L1176.02 -150.455Z" fill="#F5F9FF" fill-opacity="0.62"/>
</g>
<path d="M1318.82 -149.852L1175.02 189.494H1032.62L1176.42 -149.852H1318.82Z" stroke="#F5F9FF" stroke-opacity="0.22" stroke-width="1.20763"/>
</g>
<g opacity="0.42">
<g filter="url(#filter10_i_52_7515)">
<path d="M1319.73 -150.455H1463.44L1319.13 190.098H1175.42L1319.73 -150.455Z" fill="#F5F9FF" fill-opacity="0.5"/>
</g>
<path d="M1462.53 -149.852L1318.73 189.494H1176.33L1320.13 -149.852H1462.53Z" stroke="#F5F9FF" stroke-opacity="0.22" stroke-width="1.20763"/>
</g>
<path d="M736.389 28.125V14.125H739.389V25.425H745.789V28.125H736.389ZM745.681 28.125L750.681 14.125H754.381L759.381 28.125H756.281L755.381 25.525H749.681L748.781 28.125H745.681ZM750.661 22.825H754.401L752.581 17.525H752.481L750.661 22.825ZM770.377 26.685C769.324 27.7783 767.89 28.325 766.077 28.325C764.264 28.325 762.824 27.7783 761.757 26.685C760.704 25.5783 760.177 24.0583 760.177 22.125V14.125H763.177V22.125C763.177 23.245 763.437 24.1117 763.957 24.725C764.49 25.325 765.197 25.625 766.077 25.625C766.957 25.625 767.657 25.325 768.177 24.725C768.71 24.1117 768.977 23.245 768.977 22.125V14.125H771.977V22.125C771.977 24.0583 771.444 25.5783 770.377 26.685ZM774.271 28.125V14.125H778.171L783.471 23.725H783.571V14.125H786.571V28.125H782.671L777.371 18.525H777.271V28.125H774.271ZM794.969 28.325C792.942 28.325 791.336 27.6917 790.149 26.425C788.962 25.1583 788.369 23.3917 788.369 21.125C788.369 18.8583 788.962 17.0917 790.149 15.825C791.336 14.5583 792.942 13.925 794.969 13.925C796.649 13.925 797.989 14.3383 798.989 15.165C800.002 15.9783 800.696 17.0983 801.069 18.525H797.969C797.396 17.2583 796.396 16.625 794.969 16.625C793.876 16.625 793.002 17.0117 792.349 17.785C791.696 18.5583 791.369 19.6717 791.369 21.125C791.369 22.5783 791.696 23.6917 792.349 24.465C793.002 25.2383 793.876 25.625 794.969 25.625C796.396 25.625 797.396 24.9917 797.969 23.725H801.069C800.696 25.1517 800.002 26.2783 798.989 27.105C797.989 27.9183 796.649 28.325 794.969 28.325ZM802.671 28.125V14.125H805.671V19.725H811.271V14.125H814.271V28.125H811.271V22.425H805.671V28.125H802.671ZM816.665 28.125V14.125H819.665V28.125H816.665ZM822.066 28.125V14.125H825.966L831.266 23.725H831.366V14.125H834.366V28.125H830.466L825.166 18.525H825.066V28.125H822.066ZM842.764 28.325C840.737 28.325 839.13 27.6917 837.944 26.425C836.757 25.1583 836.164 23.3917 836.164 21.125C836.164 18.8583 836.757 17.0917 837.944 15.825C839.13 14.5583 840.737 13.925 842.764 13.925C844.444 13.925 845.784 14.3383 846.784 15.165C847.797 15.9783 848.49 17.0983 848.864 18.525H845.764C845.19 17.2583 844.19 16.625 842.764 16.625C841.67 16.625 840.797 17.0117 840.144 17.785C839.49 18.5583 839.164 19.6717 839.164 21.125C839.164 22.5783 839.49 23.6917 840.144 24.465C840.797 25.2383 841.67 25.625 842.764 25.625C844.497 25.625 845.564 24.7583 845.964 23.025H842.464V20.625H849.064V21.725C849.064 23.7517 848.504 25.3583 847.384 26.545C846.277 27.7317 844.737 28.325 842.764 28.325ZM859.865 28.325C858.265 28.325 856.952 27.945 855.925 27.185C854.899 26.425 854.312 25.3383 854.165 23.925H857.165C857.272 24.485 857.559 24.925 858.025 25.245C858.505 25.565 859.119 25.725 859.865 25.725C861.599 25.725 862.465 25.1583 862.465 24.025C862.465 23.5983 862.272 23.2583 861.885 23.005C861.499 22.7383 861.019 22.565 860.445 22.485C859.872 22.3917 859.245 22.2583 858.565 22.085C857.885 21.8983 857.259 21.685 856.685 21.445C856.112 21.205 855.632 20.7983 855.245 20.225C854.859 19.6383 854.665 18.905 854.665 18.025C854.665 16.7183 855.152 15.7117 856.125 15.005C857.099 14.285 858.345 13.925 859.865 13.925C861.492 13.925 862.759 14.305 863.665 15.065C864.572 15.8117 865.105 16.7983 865.265 18.025H862.265C862.159 17.5583 861.905 17.1917 861.505 16.925C861.119 16.6583 860.605 16.525 859.965 16.525C859.259 16.525 858.712 16.6717 858.325 16.965C857.952 17.245 857.765 17.5983 857.765 18.025C857.765 18.465 857.959 18.825 858.345 19.105C858.732 19.385 859.212 19.5783 859.785 19.685C860.359 19.7917 860.985 19.9383 861.665 20.125C862.345 20.3117 862.972 20.525 863.545 20.765C864.119 20.9917 864.599 21.385 864.985 21.945C865.372 22.505 865.565 23.1983 865.565 24.025C865.565 25.2783 865.059 26.3117 864.045 27.125C863.045 27.925 861.652 28.325 859.865 28.325ZM877.985 26.425C876.799 27.6917 875.192 28.325 873.165 28.325C871.139 28.325 869.532 27.6917 868.345 26.425C867.159 25.1583 866.565 23.3917 866.565 21.125C866.565 18.8583 867.159 17.0917 868.345 15.825C869.532 14.5583 871.139 13.925 873.165 13.925C875.192 13.925 876.799 14.5583 877.985 15.825C879.172 17.0917 879.765 18.8583 879.765 21.125C879.765 23.3917 879.172 25.1583 877.985 26.425ZM870.545 24.465C871.199 25.2383 872.072 25.625 873.165 25.625C874.259 25.625 875.132 25.2383 875.785 24.465C876.439 23.6917 876.765 22.5783 876.765 21.125C876.765 19.6717 876.439 18.5583 875.785 17.785C875.132 17.0117 874.259 16.625 873.165 16.625C872.072 16.625 871.199 17.0117 870.545 17.785C869.892 18.5583 869.565 19.6717 869.565 21.125C869.565 22.5783 869.892 23.6917 870.545 24.465ZM892.39 26.425C891.203 27.6917 889.597 28.325 887.57 28.325C885.543 28.325 883.937 27.6917 882.75 26.425C881.563 25.1583 880.97 23.3917 880.97 21.125C880.97 18.8583 881.563 17.0917 882.75 15.825C883.937 14.5583 885.543 13.925 887.57 13.925C889.597 13.925 891.203 14.5583 892.39 15.825C893.577 17.0917 894.17 18.8583 894.17 21.125C894.17 23.3917 893.577 25.1583 892.39 26.425ZM884.95 24.465C885.603 25.2383 886.477 25.625 887.57 25.625C888.663 25.625 889.537 25.2383 890.19 24.465C890.843 23.6917 891.17 22.5783 891.17 21.125C891.17 19.6717 890.843 18.5583 890.19 17.785C889.537 17.0117 888.663 16.625 887.57 16.625C886.477 16.625 885.603 17.0117 884.95 17.785C884.297 18.5583 883.97 19.6717 883.97 21.125C883.97 22.5783 884.297 23.6917 884.95 24.465ZM895.975 28.125V14.125H899.875L905.175 23.725H905.275V14.125H908.275V28.125H904.375L899.075 18.525H898.975V28.125H895.975ZM913.412 27.765C913.106 28.0717 912.726 28.225 912.272 28.225C911.819 28.225 911.439 28.0717 911.132 27.765C910.826 27.4583 910.672 27.0783 910.672 26.625C910.672 26.1717 910.826 25.7917 911.132 25.485C911.439 25.1783 911.819 25.025 912.272 25.025C912.726 25.025 913.106 25.1783 913.412 25.485C913.719 25.7917 913.872 26.1717 913.872 26.625C913.872 27.0783 913.719 27.4583 913.412 27.765ZM911.172 23.525L910.872 15.625V14.125H913.672V15.625L913.372 23.525H911.172ZM930.578 26.685C929.524 27.7783 928.091 28.325 926.278 28.325C924.464 28.325 923.024 27.7783 921.958 26.685C920.904 25.5783 920.378 24.0583 920.378 22.125V14.125H923.378V22.125C923.378 23.245 923.638 24.1117 924.158 24.725C924.691 25.325 925.398 25.625 926.278 25.625C927.158 25.625 927.858 25.325 928.378 24.725C928.911 24.1117 929.178 23.245 929.178 22.125V14.125H932.178V22.125C932.178 24.0583 931.644 25.5783 930.578 26.685ZM934.472 28.125V14.125H940.272C941.712 14.125 942.886 14.5783 943.792 15.485C944.712 16.3783 945.172 17.525 945.172 18.925C945.172 20.325 944.712 21.4783 943.792 22.385C942.886 23.2783 941.712 23.725 940.272 23.725H937.472V28.125H934.472ZM937.472 21.025H939.972C940.666 21.025 941.206 20.8383 941.592 20.465C941.979 20.0917 942.172 19.5783 942.172 18.925C942.172 18.2717 941.979 17.7583 941.592 17.385C941.206 17.0117 940.666 16.825 939.972 16.825H937.472V21.025ZM952.671 28.125V16.825H948.471V14.125H959.871V16.825H955.671V28.125H952.671ZM971.592 26.425C970.406 27.6917 968.799 28.325 966.772 28.325C964.746 28.325 963.139 27.6917 961.952 26.425C960.766 25.1583 960.172 23.3917 960.172 21.125C960.172 18.8583 960.766 17.0917 961.952 15.825C963.139 14.5583 964.746 13.925 966.772 13.925C968.799 13.925 970.406 14.5583 971.592 15.825C972.779 17.0917 973.372 18.8583 973.372 21.125C973.372 23.3917 972.779 25.1583 971.592 26.425ZM964.152 24.465C964.806 25.2383 965.679 25.625 966.772 25.625C967.866 25.625 968.739 25.2383 969.392 24.465C970.046 23.6917 970.372 22.5783 970.372 21.125C970.372 19.6717 970.046 18.5583 969.392 17.785C968.739 17.0117 967.866 16.625 966.772 16.625C965.679 16.625 964.806 17.0117 964.152 17.785C963.499 18.5583 963.172 19.6717 963.172 21.125C963.172 22.5783 963.499 23.6917 964.152 24.465ZM981.486 28.125V18.425H978.686V15.725H980.686C981.22 15.725 981.486 15.4583 981.486 14.925V14.125H984.486V28.125H981.486ZM996.657 26.485C995.59 27.7117 994.13 28.325 992.277 28.325C990.424 28.325 988.957 27.7117 987.877 26.485C986.81 25.2583 986.277 23.4717 986.277 21.125C986.277 18.7783 986.81 16.9917 987.877 15.765C988.957 14.5383 990.424 13.925 992.277 13.925C994.13 13.925 995.59 14.5383 996.657 15.765C997.737 16.9917 998.277 18.7783 998.277 21.125C998.277 23.4717 997.737 25.2583 996.657 26.485ZM990.137 24.485C990.71 25.245 991.424 25.625 992.277 25.625C993.13 25.625 993.844 25.245 994.417 24.485C994.99 23.7117 995.277 22.5917 995.277 21.125C995.277 19.6583 994.99 18.545 994.417 17.785C993.844 17.0117 993.13 16.625 992.277 16.625C991.424 16.625 990.71 17.0117 990.137 17.785C989.564 18.545 989.277 19.6583 989.277 21.125C989.277 22.5917 989.564 23.7117 990.137 24.485ZM1000.87 28.125L1009.57 14.125H1011.77L1003.07 28.125H1000.87ZM1012.39 27.425C1011.8 28.025 1011.03 28.325 1010.07 28.325C1009.11 28.325 1008.34 28.025 1007.75 27.425C1007.16 26.825 1006.87 26.025 1006.87 25.025C1006.87 24.025 1007.16 23.225 1007.75 22.625C1008.34 22.025 1009.11 21.725 1010.07 21.725C1011.03 21.725 1011.8 22.025 1012.39 22.625C1012.98 23.225 1013.27 24.025 1013.27 25.025C1013.27 26.025 1012.98 26.825 1012.39 27.425ZM1009.05 26.205C1009.32 26.485 1009.66 26.625 1010.07 26.625C1010.48 26.625 1010.82 26.485 1011.07 26.205C1011.34 25.9117 1011.47 25.5183 1011.47 25.025C1011.47 24.5317 1011.34 24.145 1011.07 23.865C1010.82 23.5717 1010.48 23.425 1010.07 23.425C1009.66 23.425 1009.32 23.5717 1009.05 23.865C1008.8 24.145 1008.67 24.5317 1008.67 25.025C1008.67 25.5183 1008.8 25.9117 1009.05 26.205ZM1004.89 19.625C1004.3 20.225 1003.53 20.525 1002.57 20.525C1001.61 20.525 1000.84 20.225 1000.25 19.625C999.664 19.025 999.371 18.225 999.371 17.225C999.371 16.225 999.664 15.425 1000.25 14.825C1000.84 14.225 1001.61 13.925 1002.57 13.925C1003.53 13.925 1004.3 14.225 1004.89 14.825C1005.48 15.425 1005.77 16.225 1005.77 17.225C1005.77 18.225 1005.48 19.025 1004.89 19.625ZM1001.55 18.405C1001.82 18.685 1002.16 18.825 1002.57 18.825C1002.98 18.825 1003.32 18.685 1003.57 18.405C1003.84 18.1117 1003.97 17.7183 1003.97 17.225C1003.97 16.7317 1003.84 16.345 1003.57 16.065C1003.32 15.7717 1002.98 15.625 1002.57 15.625C1002.16 15.625 1001.82 15.7717 1001.55 16.065C1001.3 16.345 1001.17 16.7317 1001.17 17.225C1001.17 17.7183 1001.3 18.1117 1001.55 18.405ZM1019.17 28.125V14.125H1025.17C1026.59 14.125 1027.72 14.545 1028.57 15.385C1029.44 16.225 1029.87 17.3383 1029.87 18.725C1029.87 19.3783 1029.77 19.9783 1029.57 20.525C1029.37 21.0583 1029.13 21.485 1028.85 21.805C1028.57 22.1117 1028.29 22.3717 1027.99 22.585C1027.71 22.7983 1027.47 22.9383 1027.27 23.005L1026.97 23.125L1030.37 28.125H1026.97L1023.77 23.325H1022.17V28.125H1019.17ZM1022.17 20.625H1024.97C1025.53 20.625 1025.99 20.4583 1026.33 20.125C1026.69 19.7783 1026.87 19.3117 1026.87 18.725C1026.87 18.1383 1026.69 17.6783 1026.33 17.345C1025.99 16.9983 1025.53 16.825 1024.97 16.825H1022.17V20.625ZM1031.88 28.125V14.125H1041.38V16.825H1034.88V19.825H1040.98V22.325H1034.88V25.425H1041.58V28.125H1031.88ZM1043.47 28.125V14.125H1052.97V16.825H1046.47V20.125H1052.47V22.825H1046.47V28.125H1043.47ZM1054.67 28.125V14.125H1064.17V16.825H1057.67V20.125H1063.67V22.825H1057.67V28.125H1054.67ZM1065.87 28.125V14.125H1075.37V16.825H1068.87V19.825H1074.97V22.325H1068.87V25.425H1075.57V28.125H1065.87ZM1077.47 28.125V14.125H1083.47C1084.88 14.125 1086.01 14.545 1086.87 15.385C1087.73 16.225 1088.17 17.3383 1088.17 18.725C1088.17 19.3783 1088.07 19.9783 1087.87 20.525C1087.67 21.0583 1087.43 21.485 1087.15 21.805C1086.87 22.1117 1086.58 22.3717 1086.29 22.585C1086.01 22.7983 1085.77 22.9383 1085.57 23.005L1085.27 23.125L1088.67 28.125H1085.27L1082.07 23.325H1080.47V28.125H1077.47ZM1080.47 20.625H1083.27C1083.83 20.625 1084.28 20.4583 1084.63 20.125C1084.99 19.7783 1085.17 19.3117 1085.17 18.725C1085.17 18.1383 1084.99 17.6783 1084.63 17.345C1084.28 16.9983 1083.83 16.825 1083.27 16.825H1080.47V20.625ZM1088.67 28.125L1093.67 14.125H1097.37L1102.37 28.125H1099.27L1098.37 25.525H1092.67L1091.77 28.125H1088.67ZM1093.65 22.825H1097.39L1095.57 17.525H1095.47L1093.65 22.825ZM1103.27 28.125V14.125H1106.27V25.425H1112.67V28.125H1103.27ZM1120.66 25.525H1124.06C1124.61 25.525 1125.03 25.385 1125.32 25.105C1125.62 24.825 1125.76 24.4317 1125.76 23.925C1125.76 23.4183 1125.62 23.025 1125.32 22.745C1125.03 22.465 1124.61 22.325 1124.06 22.325H1120.66V25.525ZM1117.66 28.125V14.125H1124.26C1125.65 14.125 1126.71 14.4717 1127.44 15.165C1128.19 15.8583 1128.56 16.8117 1128.56 18.025C1128.56 18.6917 1128.39 19.2917 1128.04 19.825C1127.71 20.3583 1127.28 20.7583 1126.76 21.025C1127.35 21.2917 1127.83 21.705 1128.2 22.265C1128.58 22.8117 1128.76 23.465 1128.76 24.225C1128.76 25.4383 1128.39 26.3917 1127.64 27.085C1126.91 27.7783 1125.85 28.125 1124.46 28.125H1117.66ZM1120.66 19.925H1123.86C1124.41 19.925 1124.83 19.785 1125.12 19.505C1125.42 19.225 1125.56 18.8317 1125.56 18.325C1125.56 17.8183 1125.42 17.425 1125.12 17.145C1124.83 16.865 1124.41 16.725 1123.86 16.725H1120.66V19.925ZM1141.38 26.425C1140.2 27.6917 1138.59 28.325 1136.56 28.325C1134.54 28.325 1132.93 27.6917 1131.74 26.425C1130.56 25.1583 1129.96 23.3917 1129.96 21.125C1129.96 18.8583 1130.56 17.0917 1131.74 15.825C1132.93 14.5583 1134.54 13.925 1136.56 13.925C1138.59 13.925 1140.2 14.5583 1141.38 15.825C1142.57 17.0917 1143.16 18.8583 1143.16 21.125C1143.16 23.3917 1142.57 25.1583 1141.38 26.425ZM1133.94 24.465C1134.6 25.2383 1135.47 25.625 1136.56 25.625C1137.66 25.625 1138.53 25.2383 1139.18 24.465C1139.84 23.6917 1140.16 22.5783 1140.16 21.125C1140.16 19.6717 1139.84 18.5583 1139.18 17.785C1138.53 17.0117 1137.66 16.625 1136.56 16.625C1135.47 16.625 1134.6 17.0117 1133.94 17.785C1133.29 18.5583 1132.96 19.6717 1132.96 21.125C1132.96 22.5783 1133.29 23.6917 1133.94 24.465ZM1144.97 28.125V14.125H1148.87L1154.17 23.725H1154.27V14.125H1157.27V28.125H1153.37L1148.07 18.525H1147.97V28.125H1144.97ZM1169.77 26.685C1168.71 27.7783 1167.28 28.325 1165.47 28.325C1163.65 28.325 1162.21 27.7783 1161.15 26.685C1160.09 25.5783 1159.57 24.0583 1159.57 22.125V14.125H1162.57V22.125C1162.57 23.245 1162.83 24.1117 1163.35 24.725C1163.88 25.325 1164.59 25.625 1165.47 25.625C1166.35 25.625 1167.05 25.325 1167.57 24.725C1168.1 24.1117 1168.37 23.245 1168.37 22.125V14.125H1171.37V22.125C1171.37 24.0583 1170.83 25.5783 1169.77 26.685ZM1178.46 28.325C1176.86 28.325 1175.55 27.945 1174.52 27.185C1173.49 26.425 1172.91 25.3383 1172.76 23.925H1175.76C1175.87 24.485 1176.15 24.925 1176.62 25.245C1177.1 25.565 1177.71 25.725 1178.46 25.725C1180.19 25.725 1181.06 25.1583 1181.06 24.025C1181.06 23.5983 1180.87 23.2583 1180.48 23.005C1180.09 22.7383 1179.61 22.565 1179.04 22.485C1178.47 22.3917 1177.84 22.2583 1177.16 22.085C1176.48 21.8983 1175.85 21.685 1175.28 21.445C1174.71 21.205 1174.23 20.7983 1173.84 20.225C1173.45 19.6383 1173.26 18.905 1173.26 18.025C1173.26 16.7183 1173.75 15.7117 1174.72 15.005C1175.69 14.285 1176.94 13.925 1178.46 13.925C1180.09 13.925 1181.35 14.305 1182.26 15.065C1183.17 15.8117 1183.7 16.7983 1183.86 18.025H1180.86C1180.75 17.5583 1180.5 17.1917 1180.1 16.925C1179.71 16.6583 1179.2 16.525 1178.56 16.525C1177.85 16.525 1177.31 16.6717 1176.92 16.965C1176.55 17.245 1176.36 17.5983 1176.36 18.025C1176.36 18.465 1176.55 18.825 1176.94 19.105C1177.33 19.385 1177.81 19.5783 1178.38 19.685C1178.95 19.7917 1179.58 19.9383 1180.26 20.125C1180.94 20.3117 1181.57 20.525 1182.14 20.765C1182.71 20.9917 1183.19 21.385 1183.58 21.945C1183.97 22.505 1184.16 23.1983 1184.16 24.025C1184.16 25.2783 1183.65 26.3117 1182.64 27.125C1181.64 27.925 1180.25 28.325 1178.46 28.325Z" fill="#090A0E"/>
<path d="M736.389 28.125V14.125H739.389V25.425H745.789V28.125H736.389ZM745.681 28.125L750.681 14.125H754.381L759.381 28.125H756.281L755.381 25.525H749.681L748.781 28.125H745.681ZM750.661 22.825H754.401L752.581 17.525H752.481L750.661 22.825ZM770.377 26.685C769.324 27.7783 767.89 28.325 766.077 28.325C764.264 28.325 762.824 27.7783 761.757 26.685C760.704 25.5783 760.177 24.0583 760.177 22.125V14.125H763.177V22.125C763.177 23.245 763.437 24.1117 763.957 24.725C764.49 25.325 765.197 25.625 766.077 25.625C766.957 25.625 767.657 25.325 768.177 24.725C768.71 24.1117 768.977 23.245 768.977 22.125V14.125H771.977V22.125C771.977 24.0583 771.444 25.5783 770.377 26.685ZM774.271 28.125V14.125H778.171L783.471 23.725H783.571V14.125H786.571V28.125H782.671L777.371 18.525H777.271V28.125H774.271ZM794.969 28.325C792.942 28.325 791.336 27.6917 790.149 26.425C788.962 25.1583 788.369 23.3917 788.369 21.125C788.369 18.8583 788.962 17.0917 790.149 15.825C791.336 14.5583 792.942 13.925 794.969 13.925C796.649 13.925 797.989 14.3383 798.989 15.165C800.002 15.9783 800.696 17.0983 801.069 18.525H797.969C797.396 17.2583 796.396 16.625 794.969 16.625C793.876 16.625 793.002 17.0117 792.349 17.785C791.696 18.5583 791.369 19.6717 791.369 21.125C791.369 22.5783 791.696 23.6917 792.349 24.465C793.002 25.2383 793.876 25.625 794.969 25.625C796.396 25.625 797.396 24.9917 797.969 23.725H801.069C800.696 25.1517 800.002 26.2783 798.989 27.105C797.989 27.9183 796.649 28.325 794.969 28.325ZM802.671 28.125V14.125H805.671V19.725H811.271V14.125H814.271V28.125H811.271V22.425H805.671V28.125H802.671ZM816.665 28.125V14.125H819.665V28.125H816.665ZM822.066 28.125V14.125H825.966L831.266 23.725H831.366V14.125H834.366V28.125H830.466L825.166 18.525H825.066V28.125H822.066ZM842.764 28.325C840.737 28.325 839.13 27.6917 837.944 26.425C836.757 25.1583 836.164 23.3917 836.164 21.125C836.164 18.8583 836.757 17.0917 837.944 15.825C839.13 14.5583 840.737 13.925 842.764 13.925C844.444 13.925 845.784 14.3383 846.784 15.165C847.797 15.9783 848.49 17.0983 848.864 18.525H845.764C845.19 17.2583 844.19 16.625 842.764 16.625C841.67 16.625 840.797 17.0117 840.144 17.785C839.49 18.5583 839.164 19.6717 839.164 21.125C839.164 22.5783 839.49 23.6917 840.144 24.465C840.797 25.2383 841.67 25.625 842.764 25.625C844.497 25.625 845.564 24.7583 845.964 23.025H842.464V20.625H849.064V21.725C849.064 23.7517 848.504 25.3583 847.384 26.545C846.277 27.7317 844.737 28.325 842.764 28.325ZM859.865 28.325C858.265 28.325 856.952 27.945 855.925 27.185C854.899 26.425 854.312 25.3383 854.165 23.925H857.165C857.272 24.485 857.559 24.925 858.025 25.245C858.505 25.565 859.119 25.725 859.865 25.725C861.599 25.725 862.465 25.1583 862.465 24.025C862.465 23.5983 862.272 23.2583 861.885 23.005C861.499 22.7383 861.019 22.565 860.445 22.485C859.872 22.3917 859.245 22.2583 858.565 22.085C857.885 21.8983 857.259 21.685 856.685 21.445C856.112 21.205 855.632 20.7983 855.245 20.225C854.859 19.6383 854.665 18.905 854.665 18.025C854.665 16.7183 855.152 15.7117 856.125 15.005C857.099 14.285 858.345 13.925 859.865 13.925C861.492 13.925 862.759 14.305 863.665 15.065C864.572 15.8117 865.105 16.7983 865.265 18.025H862.265C862.159 17.5583 861.905 17.1917 861.505 16.925C861.119 16.6583 860.605 16.525 859.965 16.525C859.259 16.525 858.712 16.6717 858.325 16.965C857.952 17.245 857.765 17.5983 857.765 18.025C857.765 18.465 857.959 18.825 858.345 19.105C858.732 19.385 859.212 19.5783 859.785 19.685C860.359 19.7917 860.985 19.9383 861.665 20.125C862.345 20.3117 862.972 20.525 863.545 20.765C864.119 20.9917 864.599 21.385 864.985 21.945C865.372 22.505 865.565 23.1983 865.565 24.025C865.565 25.2783 865.059 26.3117 864.045 27.125C863.045 27.925 861.652 28.325 859.865 28.325ZM877.985 26.425C876.799 27.6917 875.192 28.325 873.165 28.325C871.139 28.325 869.532 27.6917 868.345 26.425C867.159 25.1583 866.565 23.3917 866.565 21.125C866.565 18.8583 867.159 17.0917 868.345 15.825C869.532 14.5583 871.139 13.925 873.165 13.925C875.192 13.925 876.799 14.5583 877.985 15.825C879.172 17.0917 879.765 18.8583 879.765 21.125C879.765 23.3917 879.172 25.1583 877.985 26.425ZM870.545 24.465C871.199 25.2383 872.072 25.625 873.165 25.625C874.259 25.625 875.132 25.2383 875.785 24.465C876.439 23.6917 876.765 22.5783 876.765 21.125C876.765 19.6717 876.439 18.5583 875.785 17.785C875.132 17.0117 874.259 16.625 873.165 16.625C872.072 16.625 871.199 17.0117 870.545 17.785C869.892 18.5583 869.565 19.6717 869.565 21.125C869.565 22.5783 869.892 23.6917 870.545 24.465ZM892.39 26.425C891.203 27.6917 889.597 28.325 887.57 28.325C885.543 28.325 883.937 27.6917 882.75 26.425C881.563 25.1583 880.97 23.3917 880.97 21.125C880.97 18.8583 881.563 17.0917 882.75 15.825C883.937 14.5583 885.543 13.925 887.57 13.925C889.597 13.925 891.203 14.5583 892.39 15.825C893.577 17.0917 894.17 18.8583 894.17 21.125C894.17 23.3917 893.577 25.1583 892.39 26.425ZM884.95 24.465C885.603 25.2383 886.477 25.625 887.57 25.625C888.663 25.625 889.537 25.2383 890.19 24.465C890.843 23.6917 891.17 22.5783 891.17 21.125C891.17 19.6717 890.843 18.5583 890.19 17.785C889.537 17.0117 888.663 16.625 887.57 16.625C886.477 16.625 885.603 17.0117 884.95 17.785C884.297 18.5583 883.97 19.6717 883.97 21.125C883.97 22.5783 884.297 23.6917 884.95 24.465ZM895.975 28.125V14.125H899.875L905.175 23.725H905.275V14.125H908.275V28.125H904.375L899.075 18.525H898.975V28.125H895.975ZM913.412 27.765C913.106 28.0717 912.726 28.225 912.272 28.225C911.819 28.225 911.439 28.0717 911.132 27.765C910.826 27.4583 910.672 27.0783 910.672 26.625C910.672 26.1717 910.826 25.7917 911.132 25.485C911.439 25.1783 911.819 25.025 912.272 25.025C912.726 25.025 913.106 25.1783 913.412 25.485C913.719 25.7917 913.872 26.1717 913.872 26.625C913.872 27.0783 913.719 27.4583 913.412 27.765ZM911.172 23.525L910.872 15.625V14.125H913.672V15.625L913.372 23.525H911.172ZM930.578 26.685C929.524 27.7783 928.091 28.325 926.278 28.325C924.464 28.325 923.024 27.7783 921.958 26.685C920.904 25.5783 920.378 24.0583 920.378 22.125V14.125H923.378V22.125C923.378 23.245 923.638 24.1117 924.158 24.725C924.691 25.325 925.398 25.625 926.278 25.625C927.158 25.625 927.858 25.325 928.378 24.725C928.911 24.1117 929.178 23.245 929.178 22.125V14.125H932.178V22.125C932.178 24.0583 931.644 25.5783 930.578 26.685ZM934.472 28.125V14.125H940.272C941.712 14.125 942.886 14.5783 943.792 15.485C944.712 16.3783 945.172 17.525 945.172 18.925C945.172 20.325 944.712 21.4783 943.792 22.385C942.886 23.2783 941.712 23.725 940.272 23.725H937.472V28.125H934.472ZM937.472 21.025H939.972C940.666 21.025 941.206 20.8383 941.592 20.465C941.979 20.0917 942.172 19.5783 942.172 18.925C942.172 18.2717 941.979 17.7583 941.592 17.385C941.206 17.0117 940.666 16.825 939.972 16.825H937.472V21.025ZM952.671 28.125V16.825H948.471V14.125H959.871V16.825H955.671V28.125H952.671ZM971.592 26.425C970.406 27.6917 968.799 28.325 966.772 28.325C964.746 28.325 963.139 27.6917 961.952 26.425C960.766 25.1583 960.172 23.3917 960.172 21.125C960.172 18.8583 960.766 17.0917 961.952 15.825C963.139 14.5583 964.746 13.925 966.772 13.925C968.799 13.925 970.406 14.5583 971.592 15.825C972.779 17.0917 973.372 18.8583 973.372 21.125C973.372 23.3917 972.779 25.1583 971.592 26.425ZM964.152 24.465C964.806 25.2383 965.679 25.625 966.772 25.625C967.866 25.625 968.739 25.2383 969.392 24.465C970.046 23.6917 970.372 22.5783 970.372 21.125C970.372 19.6717 970.046 18.5583 969.392 17.785C968.739 17.0117 967.866 16.625 966.772 16.625C965.679 16.625 964.806 17.0117 964.152 17.785C963.499 18.5583 963.172 19.6717 963.172 21.125C963.172 22.5783 963.499 23.6917 964.152 24.465ZM981.486 28.125V18.425H978.686V15.725H980.686C981.22 15.725 981.486 15.4583 981.486 14.925V14.125H984.486V28.125H981.486ZM996.657 26.485C995.59 27.7117 994.13 28.325 992.277 28.325C990.424 28.325 988.957 27.7117 987.877 26.485C986.81 25.2583 986.277 23.4717 986.277 21.125C986.277 18.7783 986.81 16.9917 987.877 15.765C988.957 14.5383 990.424 13.925 992.277 13.925C994.13 13.925 995.59 14.5383 996.657 15.765C997.737 16.9917 998.277 18.7783 998.277 21.125C998.277 23.4717 997.737 25.2583 996.657 26.485ZM990.137 24.485C990.71 25.245 991.424 25.625 992.277 25.625C993.13 25.625 993.844 25.245 994.417 24.485C994.99 23.7117 995.277 22.5917 995.277 21.125C995.277 19.6583 994.99 18.545 994.417 17.785C993.844 17.0117 993.13 16.625 992.277 16.625C991.424 16.625 990.71 17.0117 990.137 17.785C989.564 18.545 989.277 19.6583 989.277 21.125C989.277 22.5917 989.564 23.7117 990.137 24.485ZM1000.87 28.125L1009.57 14.125H1011.77L1003.07 28.125H1000.87ZM1012.39 27.425C1011.8 28.025 1011.03 28.325 1010.07 28.325C1009.11 28.325 1008.34 28.025 1007.75 27.425C1007.16 26.825 1006.87 26.025 1006.87 25.025C1006.87 24.025 1007.16 23.225 1007.75 22.625C1008.34 22.025 1009.11 21.725 1010.07 21.725C1011.03 21.725 1011.8 22.025 1012.39 22.625C1012.98 23.225 1013.27 24.025 1013.27 25.025C1013.27 26.025 1012.98 26.825 1012.39 27.425ZM1009.05 26.205C1009.32 26.485 1009.66 26.625 1010.07 26.625C1010.48 26.625 1010.82 26.485 1011.07 26.205C1011.34 25.9117 1011.47 25.5183 1011.47 25.025C1011.47 24.5317 1011.34 24.145 1011.07 23.865C1010.82 23.5717 1010.48 23.425 1010.07 23.425C1009.66 23.425 1009.32 23.5717 1009.05 23.865C1008.8 24.145 1008.67 24.5317 1008.67 25.025C1008.67 25.5183 1008.8 25.9117 1009.05 26.205ZM1004.89 19.625C1004.3 20.225 1003.53 20.525 1002.57 20.525C1001.61 20.525 1000.84 20.225 1000.25 19.625C999.664 19.025 999.371 18.225 999.371 17.225C999.371 16.225 999.664 15.425 1000.25 14.825C1000.84 14.225 1001.61 13.925 1002.57 13.925C1003.53 13.925 1004.3 14.225 1004.89 14.825C1005.48 15.425 1005.77 16.225 1005.77 17.225C1005.77 18.225 1005.48 19.025 1004.89 19.625ZM1001.55 18.405C1001.82 18.685 1002.16 18.825 1002.57 18.825C1002.98 18.825 1003.32 18.685 1003.57 18.405C1003.84 18.1117 1003.97 17.7183 1003.97 17.225C1003.97 16.7317 1003.84 16.345 1003.57 16.065C1003.32 15.7717 1002.98 15.625 1002.57 15.625C1002.16 15.625 1001.82 15.7717 1001.55 16.065C1001.3 16.345 1001.17 16.7317 1001.17 17.225C1001.17 17.7183 1001.3 18.1117 1001.55 18.405ZM1019.17 28.125V14.125H1025.17C1026.59 14.125 1027.72 14.545 1028.57 15.385C1029.44 16.225 1029.87 17.3383 1029.87 18.725C1029.87 19.3783 1029.77 19.9783 1029.57 20.525C1029.37 21.0583 1029.13 21.485 1028.85 21.805C1028.57 22.1117 1028.29 22.3717 1027.99 22.585C1027.71 22.7983 1027.47 22.9383 1027.27 23.005L1026.97 23.125L1030.37 28.125H1026.97L1023.77 23.325H1022.17V28.125H1019.17ZM1022.17 20.625H1024.97C1025.53 20.625 1025.99 20.4583 1026.33 20.125C1026.69 19.7783 1026.87 19.3117 1026.87 18.725C1026.87 18.1383 1026.69 17.6783 1026.33 17.345C1025.99 16.9983 1025.53 16.825 1024.97 16.825H1022.17V20.625ZM1031.88 28.125V14.125H1041.38V16.825H1034.88V19.825H1040.98V22.325H1034.88V25.425H1041.58V28.125H1031.88ZM1043.47 28.125V14.125H1052.97V16.825H1046.47V20.125H1052.47V22.825H1046.47V28.125H1043.47ZM1054.67 28.125V14.125H1064.17V16.825H1057.67V20.125H1063.67V22.825H1057.67V28.125H1054.67ZM1065.87 28.125V14.125H1075.37V16.825H1068.87V19.825H1074.97V22.325H1068.87V25.425H1075.57V28.125H1065.87ZM1077.47 28.125V14.125H1083.47C1084.88 14.125 1086.01 14.545 1086.87 15.385C1087.73 16.225 1088.17 17.3383 1088.17 18.725C1088.17 19.3783 1088.07 19.9783 1087.87 20.525C1087.67 21.0583 1087.43 21.485 1087.15 21.805C1086.87 22.1117 1086.58 22.3717 1086.29 22.585C1086.01 22.7983 1085.77 22.9383 1085.57 23.005L1085.27 23.125L1088.67 28.125H1085.27L1082.07 23.325H1080.47V28.125H1077.47ZM1080.47 20.625H1083.27C1083.83 20.625 1084.28 20.4583 1084.63 20.125C1084.99 19.7783 1085.17 19.3117 1085.17 18.725C1085.17 18.1383 1084.99 17.6783 1084.63 17.345C1084.28 16.9983 1083.83 16.825 1083.27 16.825H1080.47V20.625ZM1088.67 28.125L1093.67 14.125H1097.37L1102.37 28.125H1099.27L1098.37 25.525H1092.67L1091.77 28.125H1088.67ZM1093.65 22.825H1097.39L1095.57 17.525H1095.47L1093.65 22.825ZM1103.27 28.125V14.125H1106.27V25.425H1112.67V28.125H1103.27ZM1120.66 25.525H1124.06C1124.61 25.525 1125.03 25.385 1125.32 25.105C1125.62 24.825 1125.76 24.4317 1125.76 23.925C1125.76 23.4183 1125.62 23.025 1125.32 22.745C1125.03 22.465 1124.61 22.325 1124.06 22.325H1120.66V25.525ZM1117.66 28.125V14.125H1124.26C1125.65 14.125 1126.71 14.4717 1127.44 15.165C1128.19 15.8583 1128.56 16.8117 1128.56 18.025C1128.56 18.6917 1128.39 19.2917 1128.04 19.825C1127.71 20.3583 1127.28 20.7583 1126.76 21.025C1127.35 21.2917 1127.83 21.705 1128.2 22.265C1128.58 22.8117 1128.76 23.465 1128.76 24.225C1128.76 25.4383 1128.39 26.3917 1127.64 27.085C1126.91 27.7783 1125.85 28.125 1124.46 28.125H1117.66ZM1120.66 19.925H1123.86C1124.41 19.925 1124.83 19.785 1125.12 19.505C1125.42 19.225 1125.56 18.8317 1125.56 18.325C1125.56 17.8183 1125.42 17.425 1125.12 17.145C1124.83 16.865 1124.41 16.725 1123.86 16.725H1120.66V19.925ZM1141.38 26.425C1140.2 27.6917 1138.59 28.325 1136.56 28.325C1134.54 28.325 1132.93 27.6917 1131.74 26.425C1130.56 25.1583 1129.96 23.3917 1129.96 21.125C1129.96 18.8583 1130.56 17.0917 1131.74 15.825C1132.93 14.5583 1134.54 13.925 1136.56 13.925C1138.59 13.925 1140.2 14.5583 1141.38 15.825C1142.57 17.0917 1143.16 18.8583 1143.16 21.125C1143.16 23.3917 1142.57 25.1583 1141.38 26.425ZM1133.94 24.465C1134.6 25.2383 1135.47 25.625 1136.56 25.625C1137.66 25.625 1138.53 25.2383 1139.18 24.465C1139.84 23.6917 1140.16 22.5783 1140.16 21.125C1140.16 19.6717 1139.84 18.5583 1139.18 17.785C1138.53 17.0117 1137.66 16.625 1136.56 16.625C1135.47 16.625 1134.6 17.0117 1133.94 17.785C1133.29 18.5583 1132.96 19.6717 1132.96 21.125C1132.96 22.5783 1133.29 23.6917 1133.94 24.465ZM1144.97 28.125V14.125H1148.87L1154.17 23.725H1154.27V14.125H1157.27V28.125H1153.37L1148.07 18.525H1147.97V28.125H1144.97ZM1169.77 26.685C1168.71 27.7783 1167.28 28.325 1165.47 28.325C1163.65 28.325 1162.21 27.7783 1161.15 26.685C1160.09 25.5783 1159.57 24.0583 1159.57 22.125V14.125H1162.57V22.125C1162.57 23.245 1162.83 24.1117 1163.35 24.725C1163.88 25.325 1164.59 25.625 1165.47 25.625C1166.35 25.625 1167.05 25.325 1167.57 24.725C1168.1 24.1117 1168.37 23.245 1168.37 22.125V14.125H1171.37V22.125C1171.37 24.0583 1170.83 25.5783 1169.77 26.685ZM1178.46 28.325C1176.86 28.325 1175.55 27.945 1174.52 27.185C1173.49 26.425 1172.91 25.3383 1172.76 23.925H1175.76C1175.87 24.485 1176.15 24.925 1176.62 25.245C1177.1 25.565 1177.71 25.725 1178.46 25.725C1180.19 25.725 1181.06 25.1583 1181.06 24.025C1181.06 23.5983 1180.87 23.2583 1180.48 23.005C1180.09 22.7383 1179.61 22.565 1179.04 22.485C1178.47 22.3917 1177.84 22.2583 1177.16 22.085C1176.48 21.8983 1175.85 21.685 1175.28 21.445C1174.71 21.205 1174.23 20.7983 1173.84 20.225C1173.45 19.6383 1173.26 18.905 1173.26 18.025C1173.26 16.7183 1173.75 15.7117 1174.72 15.005C1175.69 14.285 1176.94 13.925 1178.46 13.925C1180.09 13.925 1181.35 14.305 1182.26 15.065C1183.17 15.8117 1183.7 16.7983 1183.86 18.025H1180.86C1180.75 17.5583 1180.5 17.1917 1180.1 16.925C1179.71 16.6583 1179.2 16.525 1178.56 16.525C1177.85 16.525 1177.31 16.6717 1176.92 16.965C1176.55 17.245 1176.36 17.5983 1176.36 18.025C1176.36 18.465 1176.55 18.825 1176.94 19.105C1177.33 19.385 1177.81 19.5783 1178.38 19.685C1178.95 19.7917 1179.58 19.9383 1180.26 20.125C1180.94 20.3117 1181.57 20.525 1182.14 20.765C1182.71 20.9917 1183.19 21.385 1183.58 21.945C1183.97 22.505 1184.16 23.1983 1184.16 24.025C1184.16 25.2783 1183.65 26.3117 1182.64 27.125C1181.64 27.925 1180.25 28.325 1178.46 28.325Z" fill="url(#paint1_linear_52_7515)" fill-opacity="0.15"/>
<path d="M736.389 28.125V14.125H739.389V25.425H745.789V28.125H736.389ZM745.681 28.125L750.681 14.125H754.381L759.381 28.125H756.281L755.381 25.525H749.681L748.781 28.125H745.681ZM750.661 22.825H754.401L752.581 17.525H752.481L750.661 22.825ZM770.377 26.685C769.324 27.7783 767.89 28.325 766.077 28.325C764.264 28.325 762.824 27.7783 761.757 26.685C760.704 25.5783 760.177 24.0583 760.177 22.125V14.125H763.177V22.125C763.177 23.245 763.437 24.1117 763.957 24.725C764.49 25.325 765.197 25.625 766.077 25.625C766.957 25.625 767.657 25.325 768.177 24.725C768.71 24.1117 768.977 23.245 768.977 22.125V14.125H771.977V22.125C771.977 24.0583 771.444 25.5783 770.377 26.685ZM774.271 28.125V14.125H778.171L783.471 23.725H783.571V14.125H786.571V28.125H782.671L777.371 18.525H777.271V28.125H774.271ZM794.969 28.325C792.942 28.325 791.336 27.6917 790.149 26.425C788.962 25.1583 788.369 23.3917 788.369 21.125C788.369 18.8583 788.962 17.0917 790.149 15.825C791.336 14.5583 792.942 13.925 794.969 13.925C796.649 13.925 797.989 14.3383 798.989 15.165C800.002 15.9783 800.696 17.0983 801.069 18.525H797.969C797.396 17.2583 796.396 16.625 794.969 16.625C793.876 16.625 793.002 17.0117 792.349 17.785C791.696 18.5583 791.369 19.6717 791.369 21.125C791.369 22.5783 791.696 23.6917 792.349 24.465C793.002 25.2383 793.876 25.625 794.969 25.625C796.396 25.625 797.396 24.9917 797.969 23.725H801.069C800.696 25.1517 800.002 26.2783 798.989 27.105C797.989 27.9183 796.649 28.325 794.969 28.325ZM802.671 28.125V14.125H805.671V19.725H811.271V14.125H814.271V28.125H811.271V22.425H805.671V28.125H802.671ZM816.665 28.125V14.125H819.665V28.125H816.665ZM822.066 28.125V14.125H825.966L831.266 23.725H831.366V14.125H834.366V28.125H830.466L825.166 18.525H825.066V28.125H822.066ZM842.764 28.325C840.737 28.325 839.13 27.6917 837.944 26.425C836.757 25.1583 836.164 23.3917 836.164 21.125C836.164 18.8583 836.757 17.0917 837.944 15.825C839.13 14.5583 840.737 13.925 842.764 13.925C844.444 13.925 845.784 14.3383 846.784 15.165C847.797 15.9783 848.49 17.0983 848.864 18.525H845.764C845.19 17.2583 844.19 16.625 842.764 16.625C841.67 16.625 840.797 17.0117 840.144 17.785C839.49 18.5583 839.164 19.6717 839.164 21.125C839.164 22.5783 839.49 23.6917 840.144 24.465C840.797 25.2383 841.67 25.625 842.764 25.625C844.497 25.625 845.564 24.7583 845.964 23.025H842.464V20.625H849.064V21.725C849.064 23.7517 848.504 25.3583 847.384 26.545C846.277 27.7317 844.737 28.325 842.764 28.325ZM859.865 28.325C858.265 28.325 856.952 27.945 855.925 27.185C854.899 26.425 854.312 25.3383 854.165 23.925H857.165C857.272 24.485 857.559 24.925 858.025 25.245C858.505 25.565 859.119 25.725 859.865 25.725C861.599 25.725 862.465 25.1583 862.465 24.025C862.465 23.5983 862.272 23.2583 861.885 23.005C861.499 22.7383 861.019 22.565 860.445 22.485C859.872 22.3917 859.245 22.2583 858.565 22.085C857.885 21.8983 857.259 21.685 856.685 21.445C856.112 21.205 855.632 20.7983 855.245 20.225C854.859 19.6383 854.665 18.905 854.665 18.025C854.665 16.7183 855.152 15.7117 856.125 15.005C857.099 14.285 858.345 13.925 859.865 13.925C861.492 13.925 862.759 14.305 863.665 15.065C864.572 15.8117 865.105 16.7983 865.265 18.025H862.265C862.159 17.5583 861.905 17.1917 861.505 16.925C861.119 16.6583 860.605 16.525 859.965 16.525C859.259 16.525 858.712 16.6717 858.325 16.965C857.952 17.245 857.765 17.5983 857.765 18.025C857.765 18.465 857.959 18.825 858.345 19.105C858.732 19.385 859.212 19.5783 859.785 19.685C860.359 19.7917 860.985 19.9383 861.665 20.125C862.345 20.3117 862.972 20.525 863.545 20.765C864.119 20.9917 864.599 21.385 864.985 21.945C865.372 22.505 865.565 23.1983 865.565 24.025C865.565 25.2783 865.059 26.3117 864.045 27.125C863.045 27.925 861.652 28.325 859.865 28.325ZM877.985 26.425C876.799 27.6917 875.192 28.325 873.165 28.325C871.139 28.325 869.532 27.6917 868.345 26.425C867.159 25.1583 866.565 23.3917 866.565 21.125C866.565 18.8583 867.159 17.0917 868.345 15.825C869.532 14.5583 871.139 13.925 873.165 13.925C875.192 13.925 876.799 14.5583 877.985 15.825C879.172 17.0917 879.765 18.8583 879.765 21.125C879.765 23.3917 879.172 25.1583 877.985 26.425ZM870.545 24.465C871.199 25.2383 872.072 25.625 873.165 25.625C874.259 25.625 875.132 25.2383 875.785 24.465C876.439 23.6917 876.765 22.5783 876.765 21.125C876.765 19.6717 876.439 18.5583 875.785 17.785C875.132 17.0117 874.259 16.625 873.165 16.625C872.072 16.625 871.199 17.0117 870.545 17.785C869.892 18.5583 869.565 19.6717 869.565 21.125C869.565 22.5783 869.892 23.6917 870.545 24.465ZM892.39 26.425C891.203 27.6917 889.597 28.325 887.57 28.325C885.543 28.325 883.937 27.6917 882.75 26.425C881.563 25.1583 880.97 23.3917 880.97 21.125C880.97 18.8583 881.563 17.0917 882.75 15.825C883.937 14.5583 885.543 13.925 887.57 13.925C889.597 13.925 891.203 14.5583 892.39 15.825C893.577 17.0917 894.17 18.8583 894.17 21.125C894.17 23.3917 893.577 25.1583 892.39 26.425ZM884.95 24.465C885.603 25.2383 886.477 25.625 887.57 25.625C888.663 25.625 889.537 25.2383 890.19 24.465C890.843 23.6917 891.17 22.5783 891.17 21.125C891.17 19.6717 890.843 18.5583 890.19 17.785C889.537 17.0117 888.663 16.625 887.57 16.625C886.477 16.625 885.603 17.0117 884.95 17.785C884.297 18.5583 883.97 19.6717 883.97 21.125C883.97 22.5783 884.297 23.6917 884.95 24.465ZM895.975 28.125V14.125H899.875L905.175 23.725H905.275V14.125H908.275V28.125H904.375L899.075 18.525H898.975V28.125H895.975ZM913.412 27.765C913.106 28.0717 912.726 28.225 912.272 28.225C911.819 28.225 911.439 28.0717 911.132 27.765C910.826 27.4583 910.672 27.0783 910.672 26.625C910.672 26.1717 910.826 25.7917 911.132 25.485C911.439 25.1783 911.819 25.025 912.272 25.025C912.726 25.025 913.106 25.1783 913.412 25.485C913.719 25.7917 913.872 26.1717 913.872 26.625C913.872 27.0783 913.719 27.4583 913.412 27.765ZM911.172 23.525L910.872 15.625V14.125H913.672V15.625L913.372 23.525H911.172ZM930.578 26.685C929.524 27.7783 928.091 28.325 926.278 28.325C924.464 28.325 923.024 27.7783 921.958 26.685C920.904 25.5783 920.378 24.0583 920.378 22.125V14.125H923.378V22.125C923.378 23.245 923.638 24.1117 924.158 24.725C924.691 25.325 925.398 25.625 926.278 25.625C927.158 25.625 927.858 25.325 928.378 24.725C928.911 24.1117 929.178 23.245 929.178 22.125V14.125H932.178V22.125C932.178 24.0583 931.644 25.5783 930.578 26.685ZM934.472 28.125V14.125H940.272C941.712 14.125 942.886 14.5783 943.792 15.485C944.712 16.3783 945.172 17.525 945.172 18.925C945.172 20.325 944.712 21.4783 943.792 22.385C942.886 23.2783 941.712 23.725 940.272 23.725H937.472V28.125H934.472ZM937.472 21.025H939.972C940.666 21.025 941.206 20.8383 941.592 20.465C941.979 20.0917 942.172 19.5783 942.172 18.925C942.172 18.2717 941.979 17.7583 941.592 17.385C941.206 17.0117 940.666 16.825 939.972 16.825H937.472V21.025ZM952.671 28.125V16.825H948.471V14.125H959.871V16.825H955.671V28.125H952.671ZM971.592 26.425C970.406 27.6917 968.799 28.325 966.772 28.325C964.746 28.325 963.139 27.6917 961.952 26.425C960.766 25.1583 960.172 23.3917 960.172 21.125C960.172 18.8583 960.766 17.0917 961.952 15.825C963.139 14.5583 964.746 13.925 966.772 13.925C968.799 13.925 970.406 14.5583 971.592 15.825C972.779 17.0917 973.372 18.8583 973.372 21.125C973.372 23.3917 972.779 25.1583 971.592 26.425ZM964.152 24.465C964.806 25.2383 965.679 25.625 966.772 25.625C967.866 25.625 968.739 25.2383 969.392 24.465C970.046 23.6917 970.372 22.5783 970.372 21.125C970.372 19.6717 970.046 18.5583 969.392 17.785C968.739 17.0117 967.866 16.625 966.772 16.625C965.679 16.625 964.806 17.0117 964.152 17.785C963.499 18.5583 963.172 19.6717 963.172 21.125C963.172 22.5783 963.499 23.6917 964.152 24.465ZM981.486 28.125V18.425H978.686V15.725H980.686C981.22 15.725 981.486 15.4583 981.486 14.925V14.125H984.486V28.125H981.486ZM996.657 26.485C995.59 27.7117 994.13 28.325 992.277 28.325C990.424 28.325 988.957 27.7117 987.877 26.485C986.81 25.2583 986.277 23.4717 986.277 21.125C986.277 18.7783 986.81 16.9917 987.877 15.765C988.957 14.5383 990.424 13.925 992.277 13.925C994.13 13.925 995.59 14.5383 996.657 15.765C997.737 16.9917 998.277 18.7783 998.277 21.125C998.277 23.4717 997.737 25.2583 996.657 26.485ZM990.137 24.485C990.71 25.245 991.424 25.625 992.277 25.625C993.13 25.625 993.844 25.245 994.417 24.485C994.99 23.7117 995.277 22.5917 995.277 21.125C995.277 19.6583 994.99 18.545 994.417 17.785C993.844 17.0117 993.13 16.625 992.277 16.625C991.424 16.625 990.71 17.0117 990.137 17.785C989.564 18.545 989.277 19.6583 989.277 21.125C989.277 22.5917 989.564 23.7117 990.137 24.485ZM1000.87 28.125L1009.57 14.125H1011.77L1003.07 28.125H1000.87ZM1012.39 27.425C1011.8 28.025 1011.03 28.325 1010.07 28.325C1009.11 28.325 1008.34 28.025 1007.75 27.425C1007.16 26.825 1006.87 26.025 1006.87 25.025C1006.87 24.025 1007.16 23.225 1007.75 22.625C1008.34 22.025 1009.11 21.725 1010.07 21.725C1011.03 21.725 1011.8 22.025 1012.39 22.625C1012.98 23.225 1013.27 24.025 1013.27 25.025C1013.27 26.025 1012.98 26.825 1012.39 27.425ZM1009.05 26.205C1009.32 26.485 1009.66 26.625 1010.07 26.625C1010.48 26.625 1010.82 26.485 1011.07 26.205C1011.34 25.9117 1011.47 25.5183 1011.47 25.025C1011.47 24.5317 1011.34 24.145 1011.07 23.865C1010.82 23.5717 1010.48 23.425 1010.07 23.425C1009.66 23.425 1009.32 23.5717 1009.05 23.865C1008.8 24.145 1008.67 24.5317 1008.67 25.025C1008.67 25.5183 1008.8 25.9117 1009.05 26.205ZM1004.89 19.625C1004.3 20.225 1003.53 20.525 1002.57 20.525C1001.61 20.525 1000.84 20.225 1000.25 19.625C999.664 19.025 999.371 18.225 999.371 17.225C999.371 16.225 999.664 15.425 1000.25 14.825C1000.84 14.225 1001.61 13.925 1002.57 13.925C1003.53 13.925 1004.3 14.225 1004.89 14.825C1005.48 15.425 1005.77 16.225 1005.77 17.225C1005.77 18.225 1005.48 19.025 1004.89 19.625ZM1001.55 18.405C1001.82 18.685 1002.16 18.825 1002.57 18.825C1002.98 18.825 1003.32 18.685 1003.57 18.405C1003.84 18.1117 1003.97 17.7183 1003.97 17.225C1003.97 16.7317 1003.84 16.345 1003.57 16.065C1003.32 15.7717 1002.98 15.625 1002.57 15.625C1002.16 15.625 1001.82 15.7717 1001.55 16.065C1001.3 16.345 1001.17 16.7317 1001.17 17.225C1001.17 17.7183 1001.3 18.1117 1001.55 18.405ZM1019.17 28.125V14.125H1025.17C1026.59 14.125 1027.72 14.545 1028.57 15.385C1029.44 16.225 1029.87 17.3383 1029.87 18.725C1029.87 19.3783 1029.77 19.9783 1029.57 20.525C1029.37 21.0583 1029.13 21.485 1028.85 21.805C1028.57 22.1117 1028.29 22.3717 1027.99 22.585C1027.71 22.7983 1027.47 22.9383 1027.27 23.005L1026.97 23.125L1030.37 28.125H1026.97L1023.77 23.325H1022.17V28.125H1019.17ZM1022.17 20.625H1024.97C1025.53 20.625 1025.99 20.4583 1026.33 20.125C1026.69 19.7783 1026.87 19.3117 1026.87 18.725C1026.87 18.1383 1026.69 17.6783 1026.33 17.345C1025.99 16.9983 1025.53 16.825 1024.97 16.825H1022.17V20.625ZM1031.88 28.125V14.125H1041.38V16.825H1034.88V19.825H1040.98V22.325H1034.88V25.425H1041.58V28.125H1031.88ZM1043.47 28.125V14.125H1052.97V16.825H1046.47V20.125H1052.47V22.825H1046.47V28.125H1043.47ZM1054.67 28.125V14.125H1064.17V16.825H1057.67V20.125H1063.67V22.825H1057.67V28.125H1054.67ZM1065.87 28.125V14.125H1075.37V16.825H1068.87V19.825H1074.97V22.325H1068.87V25.425H1075.57V28.125H1065.87ZM1077.47 28.125V14.125H1083.47C1084.88 14.125 1086.01 14.545 1086.87 15.385C1087.73 16.225 1088.17 17.3383 1088.17 18.725C1088.17 19.3783 1088.07 19.9783 1087.87 20.525C1087.67 21.0583 1087.43 21.485 1087.15 21.805C1086.87 22.1117 1086.58 22.3717 1086.29 22.585C1086.01 22.7983 1085.77 22.9383 1085.57 23.005L1085.27 23.125L1088.67 28.125H1085.27L1082.07 23.325H1080.47V28.125H1077.47ZM1080.47 20.625H1083.27C1083.83 20.625 1084.28 20.4583 1084.63 20.125C1084.99 19.7783 1085.17 19.3117 1085.17 18.725C1085.17 18.1383 1084.99 17.6783 1084.63 17.345C1084.28 16.9983 1083.83 16.825 1083.27 16.825H1080.47V20.625ZM1088.67 28.125L1093.67 14.125H1097.37L1102.37 28.125H1099.27L1098.37 25.525H1092.67L1091.77 28.125H1088.67ZM1093.65 22.825H1097.39L1095.57 17.525H1095.47L1093.65 22.825ZM1103.27 28.125V14.125H1106.27V25.425H1112.67V28.125H1103.27ZM1120.66 25.525H1124.06C1124.61 25.525 1125.03 25.385 1125.32 25.105C1125.62 24.825 1125.76 24.4317 1125.76 23.925C1125.76 23.4183 1125.62 23.025 1125.32 22.745C1125.03 22.465 1124.61 22.325 1124.06 22.325H1120.66V25.525ZM1117.66 28.125V14.125H1124.26C1125.65 14.125 1126.71 14.4717 1127.44 15.165C1128.19 15.8583 1128.56 16.8117 1128.56 18.025C1128.56 18.6917 1128.39 19.2917 1128.04 19.825C1127.71 20.3583 1127.28 20.7583 1126.76 21.025C1127.35 21.2917 1127.83 21.705 1128.2 22.265C1128.58 22.8117 1128.76 23.465 1128.76 24.225C1128.76 25.4383 1128.39 26.3917 1127.64 27.085C1126.91 27.7783 1125.85 28.125 1124.46 28.125H1117.66ZM1120.66 19.925H1123.86C1124.41 19.925 1124.83 19.785 1125.12 19.505C1125.42 19.225 1125.56 18.8317 1125.56 18.325C1125.56 17.8183 1125.42 17.425 1125.12 17.145C1124.83 16.865 1124.41 16.725 1123.86 16.725H1120.66V19.925ZM1141.38 26.425C1140.2 27.6917 1138.59 28.325 1136.56 28.325C1134.54 28.325 1132.93 27.6917 1131.74 26.425C1130.56 25.1583 1129.96 23.3917 1129.96 21.125C1129.96 18.8583 1130.56 17.0917 1131.74 15.825C1132.93 14.5583 1134.54 13.925 1136.56 13.925C1138.59 13.925 1140.2 14.5583 1141.38 15.825C1142.57 17.0917 1143.16 18.8583 1143.16 21.125C1143.16 23.3917 1142.57 25.1583 1141.38 26.425ZM1133.94 24.465C1134.6 25.2383 1135.47 25.625 1136.56 25.625C1137.66 25.625 1138.53 25.2383 1139.18 24.465C1139.84 23.6917 1140.16 22.5783 1140.16 21.125C1140.16 19.6717 1139.84 18.5583 1139.18 17.785C1138.53 17.0117 1137.66 16.625 1136.56 16.625C1135.47 16.625 1134.6 17.0117 1133.94 17.785C1133.29 18.5583 1132.96 19.6717 1132.96 21.125C1132.96 22.5783 1133.29 23.6917 1133.94 24.465ZM1144.97 28.125V14.125H1148.87L1154.17 23.725H1154.27V14.125H1157.27V28.125H1153.37L1148.07 18.525H1147.97V28.125H1144.97ZM1169.77 26.685C1168.71 27.7783 1167.28 28.325 1165.47 28.325C1163.65 28.325 1162.21 27.7783 1161.15 26.685C1160.09 25.5783 1159.57 24.0583 1159.57 22.125V14.125H1162.57V22.125C1162.57 23.245 1162.83 24.1117 1163.35 24.725C1163.88 25.325 1164.59 25.625 1165.47 25.625C1166.35 25.625 1167.05 25.325 1167.57 24.725C1168.1 24.1117 1168.37 23.245 1168.37 22.125V14.125H1171.37V22.125C1171.37 24.0583 1170.83 25.5783 1169.77 26.685ZM1178.46 28.325C1176.86 28.325 1175.55 27.945 1174.52 27.185C1173.49 26.425 1172.91 25.3383 1172.76 23.925H1175.76C1175.87 24.485 1176.15 24.925 1176.62 25.245C1177.1 25.565 1177.71 25.725 1178.46 25.725C1180.19 25.725 1181.06 25.1583 1181.06 24.025C1181.06 23.5983 1180.87 23.2583 1180.48 23.005C1180.09 22.7383 1179.61 22.565 1179.04 22.485C1178.47 22.3917 1177.84 22.2583 1177.16 22.085C1176.48 21.8983 1175.85 21.685 1175.28 21.445C1174.71 21.205 1174.23 20.7983 1173.84 20.225C1173.45 19.6383 1173.26 18.905 1173.26 18.025C1173.26 16.7183 1173.75 15.7117 1174.72 15.005C1175.69 14.285 1176.94 13.925 1178.46 13.925C1180.09 13.925 1181.35 14.305 1182.26 15.065C1183.17 15.8117 1183.7 16.7983 1183.86 18.025H1180.86C1180.75 17.5583 1180.5 17.1917 1180.1 16.925C1179.71 16.6583 1179.2 16.525 1178.56 16.525C1177.85 16.525 1177.31 16.6717 1176.92 16.965C1176.55 17.245 1176.36 17.5983 1176.36 18.025C1176.36 18.465 1176.55 18.825 1176.94 19.105C1177.33 19.385 1177.81 19.5783 1178.38 19.685C1178.95 19.7917 1179.58 19.9383 1180.26 20.125C1180.94 20.3117 1181.57 20.525 1182.14 20.765C1182.71 20.9917 1183.19 21.385 1183.58 21.945C1183.97 22.505 1184.16 23.1983 1184.16 24.025C1184.16 25.2783 1183.65 26.3117 1182.64 27.125C1181.64 27.925 1180.25 28.325 1178.46 28.325Z" fill="url(#paint2_linear_52_7515)" fill-opacity="0.4"/>
</g>
<path d="M1920 40V37.5H0V40V42.5H1920V40Z" fill="url(#paint3_linear_52_7515)" fill-opacity="0.5" style="mix-blend-mode:overlay" mask="url(#path-1-inside-1_52_7515)"/>
</g>
<defs>
<filter id="filter0_dd_52_7515" x="-34.375" y="-34.375" width="1988.75" height="108.75" filterUnits="userSpaceOnUse" color-interpolation-filters="sRGB">
<feFlood flood-opacity="0" result="BackgroundImageFix"/>
<feColorMatrix in="SourceAlpha" type="matrix" values="0 0 0 0 0 0 0 0 0 0 0 0 0 0 0 0 0 0 127 0" result="hardAlpha"/>
<feOffset/>
<feGaussianBlur stdDeviation="7.8125"/>
<feComposite in2="hardAlpha" operator="out"/>
<feColorMatrix type="matrix" values="0 0 0 0 0.803922 0 0 0 0 0.886275 0 0 0 0 0.988235 0 0 0 0.15 0"/>
<feBlend mode="normal" in2="BackgroundImageFix" result="effect1_dropShadow_52_7515"/>
<feColorMatrix in="SourceAlpha" type="matrix" values="0 0 0 0 0 0 0 0 0 0 0 0 0 0 0 0 0 0 127 0" result="hardAlpha"/>
<feOffset/>
<feGaussianBlur stdDeviation="17.1875"/>
<feComposite in2="hardAlpha" operator="out"/>
<feColorMatrix type="matrix" values="0 0 0 0 0.803922 0 0 0 0 0.886275 0 0 0 0 0.988235 0 0 0 0.15 0"/>
<feBlend mode="normal" in2="effect1_dropShadow_52_7515" result="effect2_dropShadow_52_7515"/>
<feBlend mode="normal" in="SourceGraphic" in2="effect2_dropShadow_52_7515" result="shape"/>
</filter>
<filter id="filter1_f_52_7515" x="932.683" y="-298.875" width="804.284" height="776.389" filterUnits="userSpaceOnUse" color-interpolation-filters="sRGB">
<feFlood flood-opacity="0" result="BackgroundImageFix"/>
<feBlend mode="normal" in="SourceGraphic" in2="BackgroundImageFix" result="shape"/>
<feGaussianBlur stdDeviation="156.992" result="effect1_foregroundBlur_52_7515"/>
</filter>
<filter id="filter2_f_52_7515" x="182.742" y="-530.86" width="804.284" height="804.284" filterUnits="userSpaceOnUse" color-interpolation-filters="sRGB">
<feFlood flood-opacity="0" result="BackgroundImageFix"/>
<feBlend mode="normal" in="SourceGraphic" in2="BackgroundImageFix" result="shape"/>
<feGaussianBlur stdDeviation="156.992" result="effect1_foregroundBlur_52_7515"/>
</filter>
<filter id="filter3_f_52_7515" x="390.455" y="-329.185" width="730.618" height="730.618" filterUnits="userSpaceOnUse" color-interpolation-filters="sRGB">
<feFlood flood-opacity="0" result="BackgroundImageFix"/>
<feBlend mode="normal" in="SourceGraphic" in2="BackgroundImageFix" result="shape"/>
<feGaussianBlur stdDeviation="72.458" result="effect1_foregroundBlur_52_7515"/>
</filter>
<filter id="filter4_f_52_7515" x="-349.728" y="-558.606" width="2619.46" height="1456.21" filterUnits="userSpaceOnUse" color-interpolation-filters="sRGB">
<feFlood flood-opacity="0" result="BackgroundImageFix"/>
<feBlend mode="normal" in="SourceGraphic" in2="BackgroundImageFix" result="shape"/>
<feGaussianBlur stdDeviation="44.5013" result="effect1_foregroundBlur_52_7515"/>
</filter>
<filter id="filter5_i_52_7515" x="456.875" y="-150.455" width="288.021" height="345.383" filterUnits="userSpaceOnUse" color-interpolation-filters="sRGB">
<feFlood flood-opacity="0" result="BackgroundImageFix"/>
<feBlend mode="normal" in="SourceGraphic" in2="BackgroundImageFix" result="shape"/>
<feColorMatrix in="SourceAlpha" type="matrix" values="0 0 0 0 0 0 0 0 0 0 0 0 0 0 0 0 0 0 127 0" result="hardAlpha"/>
<feOffset dy="4.83053"/>
<feGaussianBlur stdDeviation="2.41527"/>
<feComposite in2="hardAlpha" operator="arithmetic" k2="-1" k3="1"/>
<feColorMatrix type="matrix" values="0 0 0 0 1 0 0 0 0 1 0 0 0 0 1 0 0 0 0.5 0"/>
<feBlend mode="normal" in2="shape" result="effect1_innerShadow_52_7515"/>
</filter>
<filter id="filter6_i_52_7515" x="600.583" y="-150.455" width="288.021" height="345.383" filterUnits="userSpaceOnUse" color-interpolation-filters="sRGB">
<feFlood flood-opacity="0" result="BackgroundImageFix"/>
<feBlend mode="normal" in="SourceGraphic" in2="BackgroundImageFix" result="shape"/>
<feColorMatrix in="SourceAlpha" type="matrix" values="0 0 0 0 0 0 0 0 0 0 0 0 0 0 0 0 0 0 127 0" result="hardAlpha"/>
<feOffset dy="4.83053"/>
<feGaussianBlur stdDeviation="2.41527"/>
<feComposite in2="hardAlpha" operator="arithmetic" k2="-1" k3="1"/>
<feColorMatrix type="matrix" values="0 0 0 0 1 0 0 0 0 1 0 0 0 0 1 0 0 0 0.5 0"/>
<feBlend mode="normal" in2="shape" result="effect1_innerShadow_52_7515"/>
</filter>
<filter id="filter7_i_52_7515" x="744.292" y="-150.455" width="288.021" height="345.383" filterUnits="userSpaceOnUse" color-interpolation-filters="sRGB">
<feFlood flood-opacity="0" result="BackgroundImageFix"/>
<feBlend mode="normal" in="SourceGraphic" in2="BackgroundImageFix" result="shape"/>
<feColorMatrix in="SourceAlpha" type="matrix" values="0 0 0 0 0 0 0 0 0 0 0 0 0 0 0 0 0 0 127 0" result="hardAlpha"/>
<feOffset dy="4.83053"/>
<feGaussianBlur stdDeviation="2.41527"/>
<feComposite in2="hardAlpha" operator="arithmetic" k2="-1" k3="1"/>
<feColorMatrix type="matrix" values="0 0 0 0 1 0 0 0 0 1 0 0 0 0 1 0 0 0 0.5 0"/>
<feBlend mode="normal" in2="shape" result="effect1_innerShadow_52_7515"/>
</filter>
<filter id="filter8_i_52_7515" x="888" y="-150.455" width="288.021" height="345.383" filterUnits="userSpaceOnUse" color-interpolation-filters="sRGB">
<feFlood flood-opacity="0" result="BackgroundImageFix"/>
<feBlend mode="normal" in="SourceGraphic" in2="BackgroundImageFix" result="shape"/>
<feColorMatrix in="SourceAlpha" type="matrix" values="0 0 0 0 0 0 0 0 0 0 0 0 0 0 0 0 0 0 127 0" result="hardAlpha"/>
<feOffset dy="4.83053"/>
<feGaussianBlur stdDeviation="2.41527"/>
<feComposite in2="hardAlpha" operator="arithmetic" k2="-1" k3="1"/>
<feColorMatrix type="matrix" values="0 0 0 0 1 0 0 0 0 1 0 0 0 0 1 0 0 0 0.5 0"/>
<feBlend mode="normal" in2="shape" result="effect1_innerShadow_52_7515"/>
</filter>
<filter id="filter9_i_52_7515" x="1031.71" y="-150.455" width="288.021" height="345.383" filterUnits="userSpaceOnUse" color-interpolation-filters="sRGB">
<feFlood flood-opacity="0" result="BackgroundImageFix"/>
<feBlend mode="normal" in="SourceGraphic" in2="BackgroundImageFix" result="shape"/>
<feColorMatrix in="SourceAlpha" type="matrix" values="0 0 0 0 0 0 0 0 0 0 0 0 0 0 0 0 0 0 127 0" result="hardAlpha"/>
<feOffset dy="4.83053"/>
<feGaussianBlur stdDeviation="2.41527"/>
<feComposite in2="hardAlpha" operator="arithmetic" k2="-1" k3="1"/>
<feColorMatrix type="matrix" values="0 0 0 0 1 0 0 0 0 1 0 0 0 0 1 0 0 0 0.5 0"/>
<feBlend mode="normal" in2="shape" result="effect1_innerShadow_52_7515"/>
</filter>
<filter id="filter10_i_52_7515" x="1175.42" y="-150.455" width="288.021" height="345.383" filterUnits="userSpaceOnUse" color-interpolation-filters="sRGB">
<feFlood flood-opacity="0" result="BackgroundImageFix"/>
<feBlend mode="normal" in="SourceGraphic" in2="BackgroundImageFix" result="shape"/>
<feColorMatrix in="SourceAlpha" type="matrix" values="0 0 0 0 0 0 0 0 0 0 0 0 0 0 0 0 0 0 127 0" result="hardAlpha"/>
<feOffset dy="4.83053"/>
<feGaussianBlur stdDeviation="2.41527"/>
<feComposite in2="hardAlpha" operator="arithmetic" k2="-1" k3="1"/>
<feColorMatrix type="matrix" values="0 0 0 0 1 0 0 0 0 1 0 0 0 0 1 0 0 0 0.5 0"/>
<feBlend mode="normal" in2="shape" result="effect1_innerShadow_52_7515"/>
</filter>
<linearGradient id="paint0_linear_52_7515" x1="960" y1="-469" x2="960" y2="169.5" gradientUnits="userSpaceOnUse">
<stop stop-color="#167BFF"/>
<stop offset="1" stop-color="#167BFF" stop-opacity="0"/>
</linearGradient>
<linearGradient id="paint1_linear_52_7515" x1="959.875" y1="33.125" x2="959.875" y2="8.125" gradientUnits="userSpaceOnUse">
<stop stop-color="#F5F9FF" stop-opacity="0"/>
<stop offset="1" stop-color="#F5F9FF"/>
</linearGradient>
<linearGradient id="paint2_linear_52_7515" x1="959.875" y1="8.125" x2="959.875" y2="33.125" gradientUnits="userSpaceOnUse">
<stop stop-color="#167BFF" stop-opacity="0"/>
<stop offset="1" stop-color="#167BFF"/>
</linearGradient>
<linearGradient id="paint3_linear_52_7515" x1="0" y1="20" x2="1920" y2="20" gradientUnits="userSpaceOnUse">
<stop stop-color="white" stop-opacity="0"/>
<stop offset="0.485577" stop-color="white"/>
<stop offset="1" stop-color="white" stop-opacity="0"/>
</linearGradient>
<clipPath id="clip0_52_7515">
<path d="M0 0H1920V40H0V0Z" fill="white"/>
</clipPath>
</defs>
</svg>
