<svg width="43" height="48" viewBox="0 0 43 48" fill="none" xmlns="http://www.w3.org/2000/svg">
<path d="M11.8276 0.0124967C13.1203 -0.0617338 15.2094 0.527062 16.5118 0.798662C18.0519 1.11985 19.0836 1.27253 20.6596 1.30931C22.0176 1.33576 23.3745 1.21503 24.7065 0.949083C27.5978 0.370989 29.6945 -0.563412 32.7519 0.450042C35.3523 1.31202 38.6798 3.5932 37.6474 6.74999C38.0231 6.98753 38.4397 7.39463 38.7637 7.69818C40.4815 9.30759 42.0921 11.8351 42.0734 14.262C42.0375 18.9421 38.6418 24.8114 35.9022 28.431C34.7326 29.967 33.4628 31.4241 32.1013 32.7929C32.6656 33.1788 32.8718 33.4139 33.5458 33.7672C34.8822 34.4677 36.0859 34.6386 37.5848 34.577C37.9703 34.5611 38.3508 34.546 38.7191 34.431C38.4392 34.8818 37.8564 35.6186 37.5101 36.0335C34.9477 39.1032 31.4735 42.2806 28.0401 44.311C25.9587 45.6285 23.2724 47.0924 21.0182 48C19.9296 47.6699 18.0347 46.6635 17.0273 46.1024C11.7424 43.1582 6.62573 39.3866 3.25679 34.283C5.78342 34.8913 7.61868 34.3056 9.7147 32.8354C7.05589 29.7783 4.81774 27.058 2.84736 23.4725C-0.32986 17.6911 -1.99398 11.4729 4.1355 6.79287C4.09767 6.60952 4.07009 6.42428 4.05283 6.23791C3.94386 4.95474 4.42858 3.78258 5.25469 2.81705C6.84081 0.963326 9.47256 0.204592 11.8276 0.0124967Z" fill="#090F35"/>
<path d="M34.0136 6.92664C34.259 6.99423 34.4926 7.09876 34.7066 7.2366C36.9105 8.32744 39.6786 10.3369 38.8738 13.1573C38.5206 14.5388 36.6612 15.8134 35.5058 16.5128C32.9315 18.071 29.6418 18.8494 28.2327 21.7891C28.0093 22.2551 27.7186 22.7634 27.3959 23.1648C26.1254 24.7276 24.0185 25.0551 22.122 25.1667C20.506 25.2618 18.872 25.1697 17.2965 24.7827C15.9655 24.4557 14.9156 23.7804 14.2264 22.5737C13.6736 21.6056 13.1564 20.6023 12.2812 19.8758C9.75253 17.6169 5.97272 17.3491 3.781 14.6457C3.50217 14.3018 3.17661 13.7477 3.08489 13.3134C2.41192 10.8015 4.32383 8.75934 6.35239 7.58921C6.58383 7.41068 7.14685 7.13132 7.42154 7.02023C7.67204 6.9775 8.28676 7.31309 8.52648 7.43608C7.74205 9.02483 7.59253 10.704 8.15254 12.4143C8.58632 13.7387 9.68282 14.9224 10.9355 15.5279C12.0325 16.0615 13.2974 16.1342 14.4483 15.7298C15.0495 15.5191 15.4945 15.2163 15.9966 14.832C16.6487 15.3445 17.0753 15.5432 17.9226 15.6148C17.7975 15.7266 17.5713 15.944 17.4353 16.0189C16.5619 16.694 16.1293 17.1752 15.5087 18.0739C16.0656 17.5953 16.5747 17.1606 17.254 16.8507C19.8191 15.4042 22.4783 15.4738 25.0139 16.9586C25.4843 17.1374 26.0264 17.5853 26.465 17.8776C25.7833 17.0781 25.3832 16.5959 24.5242 15.9415C24.4018 15.8776 24.2358 15.7464 24.119 15.6613C24.8485 15.4808 25.2257 15.2861 25.8326 14.8572C27.2045 15.8253 28.507 16.2635 30.189 15.7733C33.0287 14.9456 34.4919 11.6414 33.8273 8.88029C33.7012 8.35646 33.5319 7.82833 33.3732 7.30849C33.6029 7.14752 33.7652 7.06002 34.0136 6.92664Z" fill="#4EC9ED"/>
<path d="M38.0078 10.4324C38.4827 11.1187 38.7298 11.66 38.8346 12.5052C38.853 12.6532 38.856 13.0813 38.8738 13.1573C38.5206 14.5388 36.6612 15.8134 35.5058 16.5128C32.9315 18.071 29.6418 18.8494 28.2327 21.7891C28.0093 22.2551 27.7186 22.7634 27.3959 23.1648C26.1254 24.7276 24.0185 25.0551 22.122 25.1667C20.506 25.2618 18.872 25.1697 17.2965 24.7827C15.9655 24.4557 14.9156 23.7804 14.2264 22.5737C13.6736 21.6056 13.1564 20.6023 12.2812 19.8758C9.75253 17.6169 5.97272 17.3491 3.781 14.6457C3.50217 14.3018 3.17661 13.7477 3.08489 13.3134C3.09695 13.2588 3.10064 13.2542 3.10328 13.2039C3.15136 12.2811 3.39802 11.6848 3.81627 10.8847C4.71661 14.203 7.42124 15.4644 10.2299 16.9291C11.2553 17.4638 12.0033 17.8064 12.8695 18.5954C13.4026 19.0825 13.8711 19.636 14.2634 20.2422C14.7013 20.9044 15.3602 22.1643 15.9678 22.5958C17.6729 23.8068 20.7068 23.9851 22.7411 23.7077C23.7538 23.5696 25.0328 23.2482 25.8796 22.686C26.7429 22.1129 27.2048 20.9966 27.7711 20.155C28.2325 19.4825 28.7857 18.8778 29.4145 18.3584C30.2076 17.7028 31.1758 17.25 32.0782 16.7689C33.6788 15.9157 35.2644 14.9829 36.5442 13.6788C37.4284 12.778 38.1934 11.7611 38.0078 10.4324Z" fill="#166CAB"/>
<path d="M34.0136 6.92664C34.259 6.99423 34.4926 7.09876 34.7066 7.2366C34.7166 7.3739 34.813 7.48393 34.8935 7.60142C35.4115 9.7058 35.1992 11.7687 34.0488 13.6313C33.107 15.1563 31.7879 16.2043 30.0451 16.6395C28.0923 17.127 27.2008 16.4584 25.3777 16.0488C25.2104 16.0112 24.6882 15.9244 24.5242 15.9415C24.4018 15.8776 24.2358 15.7464 24.119 15.6613C24.8485 15.4808 25.2257 15.2861 25.8326 14.8572C27.2045 15.8253 28.507 16.2635 30.189 15.7733C33.0287 14.9456 34.4919 11.6414 33.8273 8.88029C33.7012 8.35646 33.5319 7.82833 33.3732 7.30849C33.6029 7.14752 33.7652 7.06002 34.0136 6.92664Z" fill="#166CAB"/>
<path d="M7.42154 7.02023C7.67204 6.9775 8.28676 7.31309 8.52648 7.43608C7.74205 9.02483 7.59253 10.704 8.15254 12.4143C8.58632 13.7387 9.68282 14.9224 10.9355 15.5279C12.0325 16.0615 13.2974 16.1342 14.4483 15.7298C15.0495 15.5191 15.4945 15.2163 15.9966 14.832C16.6487 15.3445 17.0753 15.5432 17.9226 15.6148C17.7975 15.7266 17.5713 15.944 17.4353 16.0189C15.1931 15.9352 14.1825 17.3551 11.5732 16.6254C9.88313 16.1478 8.45421 15.014 7.60504 13.4766C6.5772 11.62 6.55074 9.55455 7.23902 7.57519C7.30315 7.39086 7.36803 7.20788 7.42154 7.02023Z" fill="#166CAB"/>
<path d="M17.254 16.8507C19.8191 15.4042 22.4783 15.4738 25.0139 16.9586C25.1613 17.1555 25.511 17.439 25.7 17.6246C26.0022 17.9215 26.2869 18.211 26.5749 18.5231C23.5865 16.2246 19.9838 15.7545 16.6704 17.779C16.2561 18.0322 15.8954 18.3257 15.4938 18.5927C15.8612 18.1183 17.1255 17.1275 17.254 16.8507Z" fill="#FEF7E8"/>
<path d="M34.8935 7.60142C34.813 7.48393 34.7166 7.3739 34.7066 7.2366C36.9105 8.32744 39.6786 10.3369 38.8738 13.1573C38.856 13.0813 38.853 12.6532 38.8346 12.5052C38.7298 11.66 38.4827 11.1187 38.0078 10.4324C37.4785 9.50519 35.7684 8.21237 34.8935 7.60142Z" fill="#FEF7E8"/>
<path d="M6.35239 7.58921L6.36453 7.64422C6.11282 7.92999 5.811 8.18336 5.55379 8.46709C5.00434 9.07307 4.18403 10.1494 3.81627 10.8847C3.39802 11.6848 3.15136 12.2811 3.10328 13.2039C3.10064 13.2542 3.09695 13.2588 3.08489 13.3134C2.41192 10.8015 4.32383 8.75934 6.35239 7.58921Z" fill="#FEF7E8"/>
<path d="M17.0368 21.7848C16.8956 21.1761 16.3172 19.3892 17.2745 19.1533C17.4506 19.1099 17.7152 19.2169 17.8522 19.328C18.591 19.9956 19.2042 21.1701 19.7899 21.9831C19.5907 21.9061 19.3922 21.8277 19.1942 21.7477C18.5643 21.5482 17.7788 20.9677 17.2001 21.0304C17.1485 21.2738 17.097 21.5459 17.0368 21.7848Z" fill="#090F35"/>
<path d="M17.4132 20.4006C17.6479 20.5158 19.0834 21.5999 19.1942 21.7477C18.5643 21.5482 17.7788 20.9677 17.2001 21.0304C17.2381 20.8112 17.3142 20.5996 17.4132 20.4006Z" fill="#166CAB"/>
<path d="M22.2026 21.9708C22.6836 21.361 23.7985 19.0496 24.7173 19.1577C25.4976 19.2496 25.1387 20.814 25.0375 21.3882C25.0178 21.5028 25.0023 21.6865 24.9344 21.7669C24.8563 21.7016 24.8256 21.5462 24.7931 21.4399L24.747 21.1692C24.6006 21.064 24.5757 21.0305 24.3656 21.0675C23.8662 21.1554 23.378 21.5188 22.926 21.6962C22.7438 21.7502 22.3928 21.8978 22.2026 21.9708Z" fill="#090F35"/>
<path d="M22.926 21.6962C22.9361 21.6692 22.9714 21.5725 22.9952 21.5576C23.4598 21.2666 24.0685 20.6934 24.5112 20.4444C24.6382 20.6999 24.6956 20.8933 24.747 21.1692C24.6006 21.064 24.5757 21.0305 24.3656 21.0675C23.8662 21.1554 23.378 21.5188 22.926 21.6962Z" fill="#166CAB"/>
<path d="M24.7931 21.4399C24.837 21.3118 24.8016 21.3641 24.9011 21.2754L24.972 21.2882L25.0375 21.3882C25.0178 21.5028 25.0023 21.6865 24.9344 21.7669C24.8563 21.7016 24.8256 21.5462 24.7931 21.4399Z" fill="#07041A"/>
<path d="M6.55911 4.42639C7.58635 2.76505 11.299 1.50502 13.123 2.26315C13.9374 2.60167 14.6629 3.42951 15.1592 4.1312C16.0746 5.20027 16.8143 7.45213 17.1644 8.81669C17.3346 6.6209 17.3659 5.26063 16.5573 3.1717C16.4958 3.02226 16.4274 2.86453 16.3731 2.71328C20.1371 3.58151 21.8762 3.55891 25.6698 2.70876C25.5987 2.84946 25.5133 3.03191 25.4369 3.16552C24.688 5.25739 24.7609 6.7004 24.8338 8.85331C25.1557 7.59584 25.6601 5.9388 26.3894 4.84878C26.7702 4.07031 27.4409 3.25618 28.0893 2.69158C28.8666 2.01484 29.4452 1.96548 30.4486 2.06043C32.3405 2.23949 34.114 2.92693 35.3597 4.39496C35.5491 4.62014 35.6487 4.81073 35.7731 5.07811C34.9917 5.17103 34.4211 5.24624 33.67 5.52002C30.9515 6.51095 29.257 8.89514 27.4367 11.0097C26.2379 12.4022 24.419 15.0732 22.2764 13.6329C21.9385 13.4002 21.6574 12.9508 21.48 12.5816C21.1567 12.1518 21.061 11.5356 20.9902 11.0224C20.9151 11.5284 20.7588 12.1036 20.4505 12.518C19.8395 13.9806 18.4043 14.5054 17.0554 13.6284C16.4445 13.2242 15.9111 12.6752 15.4236 12.1315C12.863 9.27571 10.5413 5.30517 6.23234 5.23101C6.30235 4.94246 6.37741 4.66626 6.55911 4.42639Z" fill="#4EC9ED"/>
<path d="M21.48 12.5816C22.4248 13.0346 23.6434 13.0922 24.5399 12.4835C25.5778 11.7787 26.3899 10.6253 27.2092 9.68319C29.0546 7.56125 30.8335 4.83409 33.8169 4.31772C34.2026 4.25117 34.7197 4.28946 35.1116 4.30498C35.2189 4.35623 35.2451 4.3826 35.3597 4.39496C35.5491 4.62014 35.6487 4.81073 35.7731 5.07811C34.9917 5.17103 34.4211 5.24624 33.67 5.52002C30.9515 6.51095 29.257 8.89514 27.4367 11.0097C26.2379 12.4022 24.419 15.0732 22.2764 13.6329C21.9385 13.4002 21.6574 12.9508 21.48 12.5816Z" fill="#166CAB"/>
<path d="M6.71458 4.37537C8.05457 4.11417 9.22689 4.41953 10.3456 5.19725C12.5431 6.74147 13.9588 9.12235 15.7855 11.0483C16.316 11.6077 16.8561 12.2545 17.5517 12.6093C18.5101 13.0982 19.5134 12.9398 20.4505 12.518C19.8395 13.9806 18.4043 14.5054 17.0554 13.6284C16.4445 13.2242 15.9111 12.6752 15.4236 12.1315C12.863 9.27571 10.5413 5.30517 6.23234 5.23101C6.30235 4.94246 6.37741 4.66626 6.55911 4.42639L6.71458 4.37537Z" fill="#166CAB"/>
<path d="M16.3731 2.71328C20.1371 3.58151 21.8762 3.55891 25.6698 2.70876C25.5987 2.84946 25.5133 3.03191 25.4369 3.16552C23.1981 4.26444 19.8619 4.37122 17.4971 3.53215C17.1868 3.42213 16.8654 3.29085 16.5573 3.1717C16.4958 3.02226 16.4274 2.86453 16.3731 2.71328Z" fill="#FEF7E8"/>
<path d="M26.3894 4.84878C26.7702 4.07031 27.4409 3.25618 28.0893 2.69158C28.8666 2.01484 29.4452 1.96548 30.4486 2.06043C32.3405 2.23949 34.114 2.92693 35.3597 4.39496C35.2451 4.3826 35.2189 4.35623 35.1116 4.30498C33.7888 3.20381 31.3899 2.63498 29.671 2.80846C28.5042 2.92625 27.6691 3.54368 26.8733 4.37906C26.7638 4.49398 26.4952 4.87305 26.3894 4.84878Z" fill="#FEF7E8"/>
<path d="M6.55911 4.42639C7.58635 2.76505 11.299 1.50502 13.123 2.26315C13.9374 2.60167 14.6629 3.42951 15.1592 4.1312L15.1019 4.14861C14.9281 4.04679 14.7441 3.89622 14.5802 3.76442C12.5682 2.14755 9.39569 2.75255 7.33631 3.95274C7.15416 4.05893 6.86018 4.2309 6.71458 4.37537L6.55911 4.42639Z" fill="#FEF7E8"/>
<path d="M14.6793 35.4373C15.0056 35.5988 15.4491 35.8312 15.7499 36.0242C16.8683 36.6096 18.0099 37.1494 19.172 37.6422C19.6622 37.8529 20.4555 38.1952 20.9628 38.3509C22.6392 37.6596 24.4398 36.9539 26.068 36.1766C26.4253 35.9755 26.7849 35.7785 27.1467 35.5857C27.813 37.506 28.4897 38.8339 29.5394 40.6004C27.5591 42.3873 23.4167 44.9156 20.961 45.8494C18.1547 44.5901 15.4931 42.9071 12.9775 41.1569C12.738 40.9904 12.4942 40.8173 12.2674 40.6342L12.5333 40.1921L12.5872 40.0969C13.4788 38.4035 13.9929 37.2259 14.6793 35.4373Z" fill="#FEF7E8"/>
<path d="M26.068 36.1766C26.4253 35.9755 26.7849 35.7785 27.1467 35.5857C27.813 37.506 28.4897 38.8339 29.5394 40.6004C27.5591 42.3873 23.4167 44.9156 20.961 45.8494C18.1547 44.5901 15.4931 42.9071 12.9775 41.1569C12.738 40.9904 12.4942 40.8173 12.2674 40.6342L12.5333 40.1921L12.5872 40.0969C12.6901 40.1494 13.217 40.4037 13.2733 40.4479L13.8733 40.7455C15.407 41.466 16.977 42.1065 18.5771 42.6644C19.3669 42.9412 20.1692 43.1819 20.963 43.4604C23.1605 42.5642 25.5988 41.4662 27.8042 40.6562C27.4983 39.8518 27.077 39.0578 26.7714 38.1973C26.6179 37.7648 26.2218 36.4787 26.068 36.1766Z" fill="#C1BEBE"/>
<path d="M13.2733 40.4479L13.8733 40.7455C15.407 41.466 16.977 42.1065 18.5771 42.6644C19.3669 42.9412 20.1692 43.1819 20.963 43.4604C23.1605 42.5642 25.5988 41.4662 27.8042 40.6562C27.9813 40.587 28.1576 40.5158 28.3329 40.4425C28.2031 40.5262 27.8911 40.7178 27.7927 40.8093C27.8334 40.8453 27.9338 40.966 27.8924 41.008C26.1893 42.7333 22.965 44.2995 20.9304 45.3147C20.6073 45.1288 20.2177 44.9511 19.8798 44.7649C18.9897 44.2658 18.1078 43.7519 17.2347 43.2236C16.4117 42.7196 15.5982 42.2001 14.7947 41.6657C14.5311 41.4898 13.8183 41.0836 13.7529 40.81C13.6055 40.696 13.4156 40.6012 13.2503 40.5102L13.2733 40.4479Z" fill="#FEF7E8"/>
<path d="M13.2733 40.4479L13.8733 40.7455C15.407 41.466 16.977 42.1065 18.5771 42.6644C19.3669 42.9412 20.1692 43.1819 20.963 43.4604C23.1605 42.5642 25.5988 41.4662 27.8042 40.6562C27.9813 40.587 28.1576 40.5158 28.3329 40.4425C28.2031 40.5262 27.8911 40.7178 27.7927 40.8093C26.2723 41.6285 24.7885 42.4078 23.2195 43.1321C22.5016 43.4635 21.7085 43.8899 20.9755 44.1659C18.5433 43.247 16.0639 41.9912 13.7529 40.81C13.6055 40.696 13.4156 40.6012 13.2503 40.5102L13.2733 40.4479Z" fill="#090F35"/>
<path d="M12.5872 40.0969C12.6901 40.1494 13.217 40.4037 13.2733 40.4479L13.2503 40.5102C13.0149 40.4072 12.7638 40.3022 12.5333 40.1921L12.5872 40.0969Z" fill="#888389"/>
<path d="M14.6793 35.4373C15.0056 35.5988 15.4491 35.8312 15.7499 36.0242C15.6017 36.3162 15.1935 37.6484 15.0211 38.123C14.709 38.982 14.1423 39.9817 13.8733 40.7455L13.2733 40.4479C13.217 40.4037 12.6901 40.1494 12.5872 40.0969C13.4788 38.4035 13.9929 37.2259 14.6793 35.4373Z" fill="#C1BEBE"/>
<path d="M24.892 30.7551C25.2544 30.6209 25.7134 30.462 26.0578 30.2985C26.2684 31.9519 26.5226 33.6712 27.0415 35.2588C26.6705 35.3924 26.2978 35.5215 25.9236 35.646C25.6152 35.7599 25.3053 35.8767 24.9945 35.9832C23.6176 36.4552 22.2761 37.0965 20.9004 37.5639C20.3526 37.3092 19.6957 37.0645 19.1274 36.8355C18.0709 36.4057 17.0109 35.9849 15.9474 35.573C15.7739 35.5372 14.9669 35.2372 14.7579 35.1635C15.2658 33.5862 15.7082 31.9956 15.921 30.3475C16.2686 30.468 16.6521 30.6261 16.9984 30.7598C18.3538 31.2357 19.6505 31.5675 20.9861 32.0073C22.193 31.6254 23.7242 31.225 24.892 30.7551Z" fill="#FEF7E8"/>
<path d="M24.892 30.7551C25.2544 30.6209 25.7134 30.462 26.0578 30.2985C26.2684 31.9519 26.5226 33.6712 27.0415 35.2588C26.6705 35.3924 26.2978 35.5215 25.9236 35.646C25.8148 35.3735 25.6791 34.82 25.6021 34.5229C25.2819 33.2874 24.9772 32.0317 24.892 30.7551Z" fill="#C1BEBE"/>
<path d="M15.921 30.3475C16.2686 30.468 16.6521 30.6261 16.9984 30.7598C16.8052 31.8886 16.645 33.0017 16.3509 34.1117C16.2838 34.3649 15.9439 35.4075 15.9474 35.573C15.7739 35.5372 14.9669 35.2372 14.7579 35.1635C15.2658 33.5862 15.7082 31.9956 15.921 30.3475Z" fill="#C1BEBE"/>
<path d="M28.1355 31.1913C27.9773 30.0487 27.8606 28.9007 27.7856 27.7496C27.6514 25.7587 27.604 25.2207 28.8514 23.5229C30.7359 20.9581 33.1888 20.0118 36.0184 18.8686C35.9168 19.1913 35.7631 19.7118 35.6215 20.0058C34.4986 23.307 31.2373 27.7312 28.9069 30.3202C28.8165 30.4515 28.2732 31.038 28.1355 31.1913Z" fill="#C1BEBE"/>
<path d="M28.9069 30.3202C28.8352 30.1279 28.933 29.3643 28.958 29.1226C29.1221 27.5018 29.274 25.874 30.2361 24.5016C31.342 22.9239 32.838 21.7531 34.4694 20.7648C34.7058 20.6216 35.3995 20.0502 35.6215 20.0058C34.4986 23.307 31.2373 27.7312 28.9069 30.3202Z" fill="#FEF7E8"/>
<path d="M6.01591 18.9256C8.1805 19.7788 10.4379 20.7229 12.077 22.434C12.848 23.2365 13.5709 24.1402 14.0525 25.148C14.352 25.7746 14.2229 26.575 14.1934 27.2516C14.1354 28.5825 13.9681 29.8642 13.7149 31.1718C13.5663 31.0016 13.2507 30.6601 13.1313 30.4891C10.6196 27.5911 8.16904 24.3452 6.71126 20.7737C6.50116 20.3278 6.14997 19.3996 6.01591 18.9256Z" fill="#C1BEBE"/>
<path d="M6.71126 20.7737C7.06448 20.8718 7.60459 21.2237 7.93799 21.4123C9.54936 22.3137 11.0071 23.4146 11.9112 25.0649C12.6606 26.4328 12.8666 28.0173 13.0697 29.5425C13.097 29.748 13.2064 30.3333 13.1313 30.4891C10.6196 27.5911 8.16904 24.3452 6.71126 20.7737Z" fill="#FEF7E8"/>
<path d="M17.866 26.1404C19.6045 26.4405 22.3745 26.5164 24.091 26.1218C24.1644 26.5702 24.1891 26.8977 24.22 27.3499C24.2043 28.2564 24.1273 28.893 23.8657 29.7517L24.7879 29.1713C24.8518 29.3823 24.8615 29.8927 24.8581 30.1262C24.316 30.2936 23.6784 30.4441 23.1063 30.6113C22.7424 30.6633 21.2686 31.2787 20.9942 31.2216C19.8464 30.9827 18.02 30.387 16.9309 30.1187C16.9701 29.7994 17.0431 29.4248 17.0895 29.0921L17.9859 29.7708C17.6939 29.0039 17.7029 28.187 17.7354 27.3794C17.7736 26.9684 17.8067 26.5482 17.866 26.1404Z" fill="#FEF7E8"/>
<path d="M17.866 26.1404C19.6045 26.4405 22.3745 26.5164 24.091 26.1218C24.1644 26.5702 24.1891 26.8977 24.22 27.3499C24.0811 27.3444 23.534 27.4413 23.3629 27.4662C22.8987 27.5352 22.4328 27.6048 21.9625 27.6128C21.0922 27.6278 20.2187 27.6232 19.351 27.5501C18.8105 27.5047 18.2767 27.4066 17.7354 27.3794C17.7736 26.9684 17.8067 26.5482 17.866 26.1404Z" fill="#C1BEBE"/>
<path d="M2.8203 17.0465C2.96356 17.1308 3.36561 17.4646 3.55281 17.593C3.94672 17.863 4.2661 18.0483 4.67863 18.2835C5.0274 19.5555 5.58047 20.8575 6.13377 22.0508C7.91787 25.8984 10.6224 29.2115 13.3991 32.3744C13.3038 32.7348 13.2146 33.1097 13.124 33.4725C13.106 33.5692 13.0657 33.703 13.039 33.8015C12.2413 33.1042 11.3576 32.0557 10.6573 31.2198C7.2669 27.1737 3.86156 22.2933 2.8203 17.0465Z" fill="#1B86C1"/>
<path d="M39.1059 17.2179C39.1106 17.538 38.8017 18.6381 38.6885 18.9904C37.6704 22.159 36.0088 25.0247 34.0487 27.7C32.6384 29.6171 31.0865 31.4258 29.4059 33.111C29.2605 33.2556 28.8668 33.7006 28.6939 33.7273L28.6563 33.6342L28.3866 32.3816C31.7116 28.9172 34.8903 24.7782 36.7235 20.296C36.986 19.6543 37.1991 18.9036 37.3937 18.2386C37.8758 17.9054 38.523 17.6227 39.1059 17.2179Z" fill="#1B86C1"/>
<path d="M31.8524 8.56182C31.9588 8.79973 32.0539 9.05422 32.149 9.29802C32.4982 10.4214 32.4866 11.5402 31.9252 12.5963C31.4819 13.4272 30.7253 14.0468 29.8233 14.3177C29.0115 14.5538 28.0719 14.4203 27.4222 13.8541L27.109 13.5353C27.6033 12.9245 28.0479 12.394 28.5952 11.8266C28.6563 12.0297 28.7154 12.2334 28.7726 12.4376C28.9453 13.0164 29.1103 13.5688 29.3087 14.1388C30.2469 13.2563 30.2717 12.2637 29.9231 11.1102C29.9069 10.9879 29.762 10.7211 29.7012 10.5968C30.4192 9.78168 30.9746 9.23004 31.8524 8.56182Z" fill="#FEF7E8"/>
<path d="M31.8524 8.56182C31.9588 8.79973 32.0539 9.05422 32.149 9.29802C31.5756 9.64159 30.436 10.6177 29.9231 11.1102C29.9069 10.9879 29.762 10.7211 29.7012 10.5968C30.4192 9.78168 30.9746 9.23004 31.8524 8.56182Z" fill="#C1BEBE"/>
<path d="M27.109 13.5353C27.6033 12.9245 28.0479 12.394 28.5952 11.8266C28.6563 12.0297 28.7154 12.2334 28.7726 12.4376C28.4393 12.5512 27.7016 13.5507 27.4222 13.8541L27.109 13.5353Z" fill="#C1BEBE"/>
<path d="M11.651 34.0066L11.9662 34.3133C12.2118 34.522 12.4401 34.7152 12.6972 34.9112C12.3103 35.8669 11.8898 36.782 11.4318 37.7046C11.1874 38.1968 10.9008 38.8313 10.6052 39.2951C9.7685 38.6986 8.43258 37.5789 7.74371 36.8163C7.59894 36.6786 7.45538 36.5397 7.31287 36.3997C9.07797 35.9158 10.2463 35.1383 11.651 34.0066Z" fill="#166CAB"/>
<path d="M11.651 34.0066L11.9662 34.3133C11.02 35.3194 9.07745 36.5528 7.74371 36.8163C7.59894 36.6786 7.45538 36.5397 7.31287 36.3997C9.07797 35.9158 10.2463 35.1383 11.651 34.0066Z" fill="#4EC9ED"/>
<path d="M30.5113 34.1605C32.0524 35.3451 32.6428 35.7757 34.5418 36.3838L34.2779 36.6489C33.4356 37.5003 32.4115 38.4983 31.4379 39.2018C30.7434 38.1551 29.6095 36.3638 29.1695 35.218C29.4926 34.9831 29.8119 34.743 30.1274 34.4981C30.2496 34.3888 30.3847 34.2619 30.5113 34.1605Z" fill="#1B86C1"/>
<path d="M30.5113 34.1605C32.0524 35.3451 32.6428 35.7757 34.5418 36.3838L34.2779 36.6489C32.2829 36.0894 31.7645 35.7887 30.1274 34.4981C30.2496 34.3888 30.3847 34.2619 30.5113 34.1605Z" fill="#4EC9ED"/>
<path d="M10.1299 8.58623C10.8854 9.22168 11.5816 9.92434 12.2099 10.6858C12.1571 10.8308 12.064 11.0633 12.0265 11.2051C11.704 12.3373 11.8318 13.2245 12.5807 14.1531C12.9613 13.7364 13.127 13.2769 13.2457 12.7291C13.2803 12.5082 13.3133 12.2826 13.3506 12.0627C13.7929 12.4923 14.2463 12.9276 14.6402 13.4024L14.4843 13.6982C14.3777 13.8633 14.2528 14.0049 14.083 14.1046C12.709 14.9114 10.9183 14.0568 10.1692 12.7979C9.53278 11.7284 9.42252 10.6895 9.704 9.52764C9.83543 9.18475 9.93746 8.90388 10.1299 8.58623Z" fill="#FEF7E8"/>
<path d="M10.1299 8.58623C10.8854 9.22168 11.5816 9.92434 12.2099 10.6858C12.1571 10.8308 12.064 11.0633 12.0265 11.2051C11.3494 10.6677 10.4618 9.87001 9.704 9.52764C9.83543 9.18475 9.93746 8.90388 10.1299 8.58623Z" fill="#C1BEBE"/>
<path d="M13.3506 12.0627C13.7929 12.4923 14.2463 12.9276 14.6402 13.4024L14.4843 13.6982C13.9839 13.3627 13.8361 12.9314 13.2457 12.7291C13.2803 12.5082 13.3133 12.2826 13.3506 12.0627Z" fill="#C1BEBE"/>
<path d="M24.7879 29.1713C25.1748 28.8613 25.5187 28.5285 25.8618 28.171C25.8896 28.786 25.956 29.305 26.0006 29.9061C25.6192 29.9762 25.2383 30.0496 24.8581 30.1262C24.8615 29.8927 24.8518 29.3823 24.7879 29.1713Z" fill="#C1BEBE"/>
<path d="M16.1734 28.2012C16.4819 28.5626 16.7238 28.7899 17.0895 29.0921C17.0431 29.4248 16.9701 29.7994 16.9309 30.1187C16.6128 30.0272 16.2953 29.9336 15.9784 29.8382C16.0566 29.4418 16.1238 28.6318 16.1734 28.2012Z" fill="#C1BEBE"/>
<path d="M26.0867 25.4336L26.1317 25.451C26.0886 26.0526 25.3083 27.3339 24.9466 27.8124C24.9502 27.6532 25.0087 27.3421 25.0311 27.1671C25.0954 26.6631 25.073 26.3709 25.0119 25.8721C25.3797 25.7244 25.7369 25.6289 26.0867 25.4336Z" fill="#FEF7E8"/>
<path d="M15.8984 25.4423C16.2379 25.5908 16.6028 25.7202 16.9511 25.8502C16.8391 26.4662 16.8495 27.0982 16.9817 27.7102L16.9518 27.733C16.4593 27.1858 16.0513 26.1542 15.8984 25.4423Z" fill="#FEF7E8"/>
</svg>
